<mxfile host="Electron" agent="Mozilla/5.0 (Windows NT 10.0; Win64; x64) AppleWebKit/537.36 (KHTML, like Gecko) draw.io/24.7.17 Chrome/128.0.6613.36 Electron/32.0.1 Safari/537.36" version="24.7.17">
  <diagram name="PÃ¡gina-1" id="zKVaLpRVaVJMzpsZjOmP">
    <mxGraphModel dx="1990" dy="1195" grid="1" gridSize="10" guides="1" tooltips="1" connect="1" arrows="1" fold="1" page="1" pageScale="1" pageWidth="827" pageHeight="1169" background="#ffffff" math="0" shadow="1">
      <root>
        <mxCell id="0" />
        <mxCell id="1" parent="0" />
        <mxCell id="iBeRQEw0bHEhuUZA9688-381" value="" style="endArrow=none;dashed=1;html=1;rounded=0;fontColor=default;entryX=-0.011;entryY=0.728;entryDx=0;entryDy=0;entryPerimeter=0;exitX=0.989;exitY=0.618;exitDx=0;exitDy=0;exitPerimeter=0;labelBackgroundColor=none;strokeColor=#09555B;" edge="1" parent="1" source="iBeRQEw0bHEhuUZA9688-372" target="iBeRQEw0bHEhuUZA9688-345">
          <mxGeometry width="50" height="50" relative="1" as="geometry">
            <mxPoint x="861.0600000000002" y="457.22" as="sourcePoint" />
            <mxPoint x="885.9200000000001" y="468" as="targetPoint" />
          </mxGeometry>
        </mxCell>
        <mxCell id="iBeRQEw0bHEhuUZA9688-268" value="" style="group;labelBackgroundColor=none;fontColor=#1A1A1A;rounded=0;" vertex="1" connectable="0" parent="1">
          <mxGeometry x="988.71" y="248" width="118.13999999999996" height="125.77999999999997" as="geometry" />
        </mxCell>
        <mxCell id="iBeRQEw0bHEhuUZA9688-258" value="Technician" style="swimlane;fontStyle=0;childLayout=stackLayout;horizontal=1;startSize=30;horizontalStack=0;resizeParent=1;resizeParentMax=0;resizeLast=0;collapsible=1;marginBottom=0;whiteSpace=wrap;html=1;labelBackgroundColor=none;rounded=0;fillColor=#FAD9D5;strokeColor=#D0CEE2;fontColor=#1A1A1A;" vertex="1" parent="iBeRQEw0bHEhuUZA9688-268">
          <mxGeometry x="137" y="96.77999999999997" width="100" height="60" as="geometry" />
        </mxCell>
        <mxCell id="iBeRQEw0bHEhuUZA9688-259" value="&lt;div&gt;Function&lt;/div&gt;&lt;div&gt;Material&lt;/div&gt;" style="text;align=left;verticalAlign=middle;spacingLeft=4;spacingRight=4;overflow=hidden;points=[[0,0.5],[1,0.5]];portConstraint=eastwest;rotatable=0;whiteSpace=wrap;html=1;labelBackgroundColor=none;rounded=0;fontColor=#1A1A1A;" vertex="1" parent="iBeRQEw0bHEhuUZA9688-258">
          <mxGeometry y="30" width="100" height="30" as="geometry" />
        </mxCell>
        <mxCell id="iBeRQEw0bHEhuUZA9688-267" value="" style="endArrow=none;html=1;rounded=0;fontColor=default;exitX=0.5;exitY=0;exitDx=0;exitDy=0;labelBackgroundColor=none;strokeColor=#09555B;" edge="1" parent="iBeRQEw0bHEhuUZA9688-268" source="iBeRQEw0bHEhuUZA9688-258">
          <mxGeometry width="50" height="50" relative="1" as="geometry">
            <mxPoint x="187.05" y="73.36000000000001" as="sourcePoint" />
            <mxPoint x="186.9400000000001" y="64" as="targetPoint" />
          </mxGeometry>
        </mxCell>
        <mxCell id="iBeRQEw0bHEhuUZA9688-277" value="" style="whiteSpace=wrap;html=1;shape=mxgraph.basic.document;labelBackgroundColor=none;rounded=0;fillColor=#FAD9D5;strokeColor=#D0CEE2;fontColor=#1A1A1A;" vertex="1" parent="iBeRQEw0bHEhuUZA9688-268">
          <mxGeometry x="248.27999999999997" y="107.77999999999997" width="65.15" height="20" as="geometry" />
        </mxCell>
        <mxCell id="iBeRQEw0bHEhuUZA9688-279" value="&lt;div style=&quot;text-align: left;&quot;&gt;&lt;font style=&quot;font-size: 6px;&quot;&gt;-function NOT_NULL&lt;/font&gt;&lt;/div&gt;&lt;div&gt;&lt;br&gt;&lt;/div&gt;" style="text;html=1;align=center;verticalAlign=middle;whiteSpace=wrap;rounded=0;labelBackgroundColor=none;fontColor=#1A1A1A;" vertex="1" parent="iBeRQEw0bHEhuUZA9688-268">
          <mxGeometry x="244.28999999999996" y="117.27999999999997" width="70.85" height="12" as="geometry" />
        </mxCell>
        <mxCell id="iBeRQEw0bHEhuUZA9688-629" value="" style="group;labelBackgroundColor=none;fontColor=#1A1A1A;rounded=0;" vertex="1" connectable="0" parent="iBeRQEw0bHEhuUZA9688-268">
          <mxGeometry x="248.27999999999997" y="131.77999999999997" width="60.99999999999977" height="20" as="geometry" />
        </mxCell>
        <mxCell id="iBeRQEw0bHEhuUZA9688-269" value="" style="whiteSpace=wrap;html=1;shape=mxgraph.basic.document;labelBackgroundColor=none;rounded=0;fillColor=#FAD9D5;strokeColor=#D0CEE2;fontColor=#1A1A1A;" vertex="1" parent="iBeRQEw0bHEhuUZA9688-629">
          <mxGeometry x="0.14999999999986358" width="60.85" height="20" as="geometry" />
        </mxCell>
        <mxCell id="iBeRQEw0bHEhuUZA9688-273" value="&lt;div&gt;&lt;span style=&quot;background-color: initial;&quot;&gt;&lt;font style=&quot;font-size: 6px;&quot;&gt;-material NOT_NULL&lt;/font&gt;&lt;/span&gt;&lt;br&gt;&lt;/div&gt;" style="text;html=1;align=left;verticalAlign=middle;whiteSpace=wrap;rounded=0;labelBackgroundColor=none;fontColor=#1A1A1A;" vertex="1" parent="iBeRQEw0bHEhuUZA9688-629">
          <mxGeometry y="2" width="59.29" height="14" as="geometry" />
        </mxCell>
        <mxCell id="iBeRQEw0bHEhuUZA9688-630" value="" style="endArrow=none;dashed=1;html=1;rounded=0;fontColor=default;exitX=1.011;exitY=0.216;exitDx=0;exitDy=0;exitPerimeter=0;entryX=0.044;entryY=0.115;entryDx=0;entryDy=0;entryPerimeter=0;labelBackgroundColor=none;strokeColor=#09555B;" edge="1" parent="iBeRQEw0bHEhuUZA9688-268" source="iBeRQEw0bHEhuUZA9688-259" target="iBeRQEw0bHEhuUZA9688-279">
          <mxGeometry width="50" height="50" relative="1" as="geometry">
            <mxPoint x="237.28999999999996" y="167" as="sourcePoint" />
            <mxPoint x="287.28999999999996" y="117" as="targetPoint" />
          </mxGeometry>
        </mxCell>
        <mxCell id="iBeRQEw0bHEhuUZA9688-631" value="" style="endArrow=none;dashed=1;html=1;rounded=0;fontColor=default;exitX=1.006;exitY=0.647;exitDx=0;exitDy=0;exitPerimeter=0;entryX=0.002;entryY=0.641;entryDx=0;entryDy=0;entryPerimeter=0;labelBackgroundColor=none;strokeColor=#09555B;" edge="1" parent="iBeRQEw0bHEhuUZA9688-268" source="iBeRQEw0bHEhuUZA9688-259" target="iBeRQEw0bHEhuUZA9688-273">
          <mxGeometry width="50" height="50" relative="1" as="geometry">
            <mxPoint x="237.28999999999996" y="167" as="sourcePoint" />
            <mxPoint x="287.28999999999996" y="117" as="targetPoint" />
          </mxGeometry>
        </mxCell>
        <mxCell id="iBeRQEw0bHEhuUZA9688-296" value="Person" style="swimlane;fontStyle=0;childLayout=stackLayout;horizontal=1;startSize=30;horizontalStack=0;resizeParent=1;resizeParentMax=0;resizeLast=0;collapsible=1;marginBottom=0;whiteSpace=wrap;html=1;labelBackgroundColor=none;fillColor=#FAD9D5;strokeColor=#D0CEE2;fontColor=#1A1A1A;rounded=0;" vertex="1" parent="1">
          <mxGeometry x="599.06" y="126" width="141" height="120" as="geometry" />
        </mxCell>
        <mxCell id="iBeRQEw0bHEhuUZA9688-297" value="Name (pk)" style="text;strokeColor=none;fillColor=none;align=left;verticalAlign=middle;spacingLeft=4;spacingRight=4;overflow=hidden;points=[[0,0.5],[1,0.5]];portConstraint=eastwest;rotatable=0;whiteSpace=wrap;html=1;labelBackgroundColor=none;fontColor=#1A1A1A;rounded=0;" vertex="1" parent="iBeRQEw0bHEhuUZA9688-296">
          <mxGeometry y="30" width="141" height="30" as="geometry" />
        </mxCell>
        <mxCell id="iBeRQEw0bHEhuUZA9688-298" value="Email" style="text;strokeColor=none;fillColor=none;align=left;verticalAlign=middle;spacingLeft=4;spacingRight=4;overflow=hidden;points=[[0,0.5],[1,0.5]];portConstraint=eastwest;rotatable=0;whiteSpace=wrap;html=1;labelBackgroundColor=none;fontColor=#1A1A1A;rounded=0;" vertex="1" parent="iBeRQEw0bHEhuUZA9688-296">
          <mxGeometry y="60" width="141" height="30" as="geometry" />
        </mxCell>
        <mxCell id="iBeRQEw0bHEhuUZA9688-299" value="Age" style="text;strokeColor=none;fillColor=none;align=left;verticalAlign=middle;spacingLeft=4;spacingRight=4;overflow=hidden;points=[[0,0.5],[1,0.5]];portConstraint=eastwest;rotatable=0;whiteSpace=wrap;html=1;labelBackgroundColor=none;fontColor=#1A1A1A;rounded=0;" vertex="1" parent="iBeRQEw0bHEhuUZA9688-296">
          <mxGeometry y="90" width="141" height="30" as="geometry" />
        </mxCell>
        <mxCell id="iBeRQEw0bHEhuUZA9688-270" value="Local Technician" style="swimlane;fontStyle=0;childLayout=stackLayout;horizontal=1;startSize=30;horizontalStack=0;resizeParent=1;resizeParentMax=0;resizeLast=0;collapsible=1;marginBottom=0;whiteSpace=wrap;html=1;labelBackgroundColor=none;rounded=0;fillColor=#FAD9D5;strokeColor=#D0CEE2;fontColor=#1A1A1A;" vertex="1" parent="1">
          <mxGeometry x="1174.71" y="414.89" width="114.73" height="50" as="geometry" />
        </mxCell>
        <mxCell id="iBeRQEw0bHEhuUZA9688-271" value="Address (fk)" style="text;strokeColor=none;fillColor=none;align=left;verticalAlign=middle;spacingLeft=4;spacingRight=4;overflow=hidden;points=[[0,0.5],[1,0.5]];portConstraint=eastwest;rotatable=0;whiteSpace=wrap;html=1;labelBackgroundColor=none;rounded=0;fontColor=#1A1A1A;" vertex="1" parent="iBeRQEw0bHEhuUZA9688-270">
          <mxGeometry y="30" width="114.73" height="20" as="geometry" />
        </mxCell>
        <mxCell id="iBeRQEw0bHEhuUZA9688-311" value="" style="endArrow=none;html=1;rounded=0;fontColor=default;labelBackgroundColor=none;strokeColor=#09555B;" edge="1" parent="1">
          <mxGeometry width="50" height="50" relative="1" as="geometry">
            <mxPoint x="1208.71" y="414.89" as="sourcePoint" />
            <mxPoint x="1208.71" y="404.89" as="targetPoint" />
          </mxGeometry>
        </mxCell>
        <mxCell id="iBeRQEw0bHEhuUZA9688-312" value="Styling Technician" style="swimlane;fontStyle=0;childLayout=stackLayout;horizontal=1;startSize=30;horizontalStack=0;resizeParent=1;resizeParentMax=0;resizeLast=0;collapsible=1;marginBottom=0;whiteSpace=wrap;html=1;labelBackgroundColor=none;rounded=0;fillColor=#FAD9D5;strokeColor=#D0CEE2;fontColor=#1A1A1A;" vertex="1" parent="1">
          <mxGeometry x="1046.72" y="414.89" width="121" height="50" as="geometry" />
        </mxCell>
        <mxCell id="iBeRQEw0bHEhuUZA9688-313" value="Model (fk)" style="text;strokeColor=none;fillColor=none;align=left;verticalAlign=middle;spacingLeft=4;spacingRight=4;overflow=hidden;points=[[0,0.5],[1,0.5]];portConstraint=eastwest;rotatable=0;whiteSpace=wrap;html=1;labelBackgroundColor=none;rounded=0;fontColor=#1A1A1A;" vertex="1" parent="iBeRQEw0bHEhuUZA9688-312">
          <mxGeometry y="30" width="121" height="20" as="geometry" />
        </mxCell>
        <mxCell id="iBeRQEw0bHEhuUZA9688-363" value="" style="endArrow=none;html=1;rounded=0;fontColor=default;labelBackgroundColor=none;strokeColor=#09555B;" edge="1" parent="iBeRQEw0bHEhuUZA9688-312">
          <mxGeometry width="50" height="50" relative="1" as="geometry">
            <mxPoint x="-71.72000000000003" y="70.11000000000001" as="sourcePoint" />
            <mxPoint x="64.27999999999997" y="50" as="targetPoint" />
            <Array as="points">
              <mxPoint x="64.27999999999997" y="70.11000000000001" />
            </Array>
          </mxGeometry>
        </mxCell>
        <mxCell id="iBeRQEw0bHEhuUZA9688-320" value="" style="endArrow=none;dashed=1;html=1;rounded=0;entryX=0.5;entryY=0;entryDx=0;entryDy=0;labelBackgroundColor=none;fontColor=default;exitX=1;exitY=0.5;exitDx=0;exitDy=0;strokeColor=#09555B;" edge="1" parent="1" target="iBeRQEw0bHEhuUZA9688-312" source="iBeRQEw0bHEhuUZA9688-323">
          <mxGeometry width="50" height="50" relative="1" as="geometry">
            <mxPoint x="1021.27" y="457.63" as="sourcePoint" />
            <mxPoint x="1046.723" y="454.95000000000005" as="targetPoint" />
          </mxGeometry>
        </mxCell>
        <mxCell id="iBeRQEw0bHEhuUZA9688-326" value="" style="endArrow=none;html=1;rounded=0;fontColor=default;labelBackgroundColor=none;strokeColor=#09555B;" edge="1" parent="1">
          <mxGeometry width="50" height="50" relative="1" as="geometry">
            <mxPoint x="1135.71" y="414.89" as="sourcePoint" />
            <mxPoint x="1135.71" y="404.89" as="targetPoint" />
          </mxGeometry>
        </mxCell>
        <mxCell id="iBeRQEw0bHEhuUZA9688-327" value="" style="group;labelBackgroundColor=none;fontColor=#1A1A1A;rounded=0;" vertex="1" connectable="0" parent="1">
          <mxGeometry x="1019.71" y="388.39" width="59.71" height="20" as="geometry" />
        </mxCell>
        <mxCell id="iBeRQEw0bHEhuUZA9688-316" value="" style="whiteSpace=wrap;html=1;shape=mxgraph.basic.document;labelBackgroundColor=none;rounded=0;fillColor=#FAD9D5;strokeColor=#D0CEE2;fontColor=#1A1A1A;" vertex="1" parent="iBeRQEw0bHEhuUZA9688-327">
          <mxGeometry x="0.788024673648032" y="0.6666666666666666" width="58.921975326352005" height="19.333333333333332" as="geometry" />
        </mxCell>
        <mxCell id="iBeRQEw0bHEhuUZA9688-323" value="&lt;span style=&quot;text-align: left;&quot;&gt;&lt;font style=&quot;font-size: 6px;&quot;&gt;-model NOT_NULL&lt;/font&gt;&lt;/span&gt;" style="text;html=1;align=center;verticalAlign=middle;whiteSpace=wrap;rounded=0;labelBackgroundColor=none;fontColor=#1A1A1A;" vertex="1" parent="iBeRQEw0bHEhuUZA9688-327">
          <mxGeometry width="59.709999999999965" height="20" as="geometry" />
        </mxCell>
        <mxCell id="iBeRQEw0bHEhuUZA9688-338" value="" style="whiteSpace=wrap;html=1;shape=mxgraph.basic.document;labelBackgroundColor=none;rounded=0;fillColor=#FAD9D5;strokeColor=#D0CEE2;fontColor=#1A1A1A;" vertex="1" parent="1">
          <mxGeometry x="493.1400000000003" y="186" width="65.15" height="20" as="geometry" />
        </mxCell>
        <mxCell id="iBeRQEw0bHEhuUZA9688-339" value="&lt;div style=&quot;text-align: left;&quot;&gt;&lt;font style=&quot;font-size: 6px;&quot;&gt;-email NOT_NULL&lt;/font&gt;&lt;/div&gt;" style="text;html=1;align=center;verticalAlign=middle;whiteSpace=wrap;rounded=0;labelBackgroundColor=none;fontColor=#1A1A1A;" vertex="1" parent="1">
          <mxGeometry x="493.1400000000003" y="190" width="60.29" height="12" as="geometry" />
        </mxCell>
        <mxCell id="iBeRQEw0bHEhuUZA9688-341" value="" style="endArrow=none;dashed=1;html=1;rounded=0;labelBackgroundColor=none;fontColor=default;exitX=0.997;exitY=0.819;exitDx=0;exitDy=0;exitPerimeter=0;entryX=0;entryY=0.5;entryDx=0;entryDy=0;strokeColor=#09555B;" edge="1" parent="1" source="iBeRQEw0bHEhuUZA9688-337">
          <mxGeometry width="50" height="50" relative="1" as="geometry">
            <mxPoint x="569.2" y="170.48000000000002" as="sourcePoint" />
            <mxPoint x="599.06" y="185" as="targetPoint" />
          </mxGeometry>
        </mxCell>
        <mxCell id="iBeRQEw0bHEhuUZA9688-343" value="" style="group;labelBackgroundColor=none;fontColor=#1A1A1A;rounded=0;" vertex="1" connectable="0" parent="1">
          <mxGeometry x="450" y="156" width="115.28999999999996" height="20" as="geometry" />
        </mxCell>
        <mxCell id="iBeRQEw0bHEhuUZA9688-336" value="" style="whiteSpace=wrap;html=1;shape=mxgraph.basic.document;labelBackgroundColor=none;rounded=0;fillColor=#FAD9D5;strokeColor=#D0CEE2;fontColor=#1A1A1A;" vertex="1" parent="iBeRQEw0bHEhuUZA9688-343">
          <mxGeometry x="0.14999999999986358" width="115.14" height="20" as="geometry" />
        </mxCell>
        <mxCell id="iBeRQEw0bHEhuUZA9688-337" value="&lt;span style=&quot;background-color: initial;&quot;&gt;&amp;nbsp;&lt;/span&gt;&lt;font style=&quot;background-color: initial; font-size: 6px;&quot;&gt;-age CHECK (age&amp;gt;=10 AND age&amp;lt;100)&lt;/font&gt;&lt;span style=&quot;background-color: initial;&quot;&gt;&amp;nbsp;&lt;/span&gt;" style="text;html=1;align=left;verticalAlign=middle;whiteSpace=wrap;rounded=0;labelBackgroundColor=none;fontColor=#1A1A1A;" vertex="1" parent="iBeRQEw0bHEhuUZA9688-343">
          <mxGeometry y="1" width="115.29" height="14" as="geometry" />
        </mxCell>
        <mxCell id="iBeRQEw0bHEhuUZA9688-344" value="Model" style="swimlane;fontStyle=0;childLayout=stackLayout;horizontal=1;startSize=30;horizontalStack=0;resizeParent=1;resizeParentMax=0;resizeLast=0;collapsible=1;marginBottom=0;whiteSpace=wrap;html=1;labelBackgroundColor=none;rounded=0;fillColor=#FAD9D5;strokeColor=#D0CEE2;fontColor=#1A1A1A;" vertex="1" parent="1">
          <mxGeometry x="875" y="394.89" width="100" height="140" as="geometry" />
        </mxCell>
        <mxCell id="iBeRQEw0bHEhuUZA9688-345" value="&lt;div style=&quot;&quot;&gt;&lt;div&gt;&lt;span style=&quot;background-color: initial;&quot;&gt;Nationality&lt;/span&gt;&lt;br&gt;&lt;/div&gt;&lt;div&gt;Bust&lt;/div&gt;&lt;div&gt;Waist&lt;/div&gt;&lt;div&gt;Hips&lt;/div&gt;&lt;div&gt;Height&lt;/div&gt;&lt;div&gt;Weight&lt;/div&gt;&lt;div&gt;Health Problems&lt;/div&gt;&lt;/div&gt;" style="text;html=1;align=left;verticalAlign=middle;resizable=0;points=[];autosize=1;strokeColor=none;fillColor=none;labelBackgroundColor=none;rounded=0;fontColor=#1A1A1A;" vertex="1" parent="iBeRQEw0bHEhuUZA9688-344">
          <mxGeometry y="30" width="100" height="110" as="geometry" />
        </mxCell>
        <mxCell id="iBeRQEw0bHEhuUZA9688-348" value="Designer" style="swimlane;fontStyle=0;childLayout=stackLayout;horizontal=1;startSize=30;horizontalStack=0;resizeParent=1;resizeParentMax=0;resizeLast=0;collapsible=1;marginBottom=0;whiteSpace=wrap;html=1;labelBackgroundColor=none;rounded=0;fillColor=#FAD9D5;strokeColor=#D0CEE2;fontColor=#1A1A1A;" vertex="1" parent="1">
          <mxGeometry x="120" y="515" width="90" height="90" as="geometry" />
        </mxCell>
        <mxCell id="iBeRQEw0bHEhuUZA9688-349" value="&lt;div&gt;&lt;span style=&quot;background-color: initial;&quot;&gt;Nationality&lt;/span&gt;&lt;br&gt;&lt;/div&gt;&lt;div&gt;Photography&lt;/div&gt;&lt;div&gt;Biography&amp;nbsp;&lt;/div&gt;" style="text;strokeColor=none;fillColor=none;align=left;verticalAlign=middle;spacingLeft=4;spacingRight=4;overflow=hidden;points=[[0,0.5],[1,0.5]];portConstraint=eastwest;rotatable=0;whiteSpace=wrap;html=1;labelBackgroundColor=none;rounded=0;fontColor=#1A1A1A;" vertex="1" parent="iBeRQEw0bHEhuUZA9688-348">
          <mxGeometry y="30" width="90" height="60" as="geometry" />
        </mxCell>
        <mxCell id="iBeRQEw0bHEhuUZA9688-280" value="" style="endArrow=none;dashed=1;html=1;rounded=0;labelBackgroundColor=none;fontColor=default;entryX=0;entryY=0.5;entryDx=0;entryDy=0;exitX=1;exitY=0.5;exitDx=0;exitDy=0;strokeColor=#09555B;" edge="1" parent="1" source="iBeRQEw0bHEhuUZA9688-271">
          <mxGeometry width="50" height="50" relative="1" as="geometry">
            <mxPoint x="1281.21" y="454.89" as="sourcePoint" />
            <mxPoint x="1301.19" y="448.89" as="targetPoint" />
          </mxGeometry>
        </mxCell>
        <mxCell id="iBeRQEw0bHEhuUZA9688-358" value="" style="group;labelBackgroundColor=none;fontColor=#1A1A1A;rounded=0;" vertex="1" connectable="0" parent="1">
          <mxGeometry x="1297.19" y="438.89" width="64.51999999999998" height="22" as="geometry" />
        </mxCell>
        <mxCell id="iBeRQEw0bHEhuUZA9688-274" value="" style="whiteSpace=wrap;html=1;shape=mxgraph.basic.document;labelBackgroundColor=none;rounded=0;container=0;fillColor=#FAD9D5;strokeColor=#D0CEE2;fontColor=#1A1A1A;" vertex="1" parent="iBeRQEw0bHEhuUZA9688-358">
          <mxGeometry y="2" width="64.52" height="20" as="geometry" />
        </mxCell>
        <mxCell id="iBeRQEw0bHEhuUZA9688-275" value="&lt;div&gt;&lt;br&gt;&lt;/div&gt;" style="text;html=1;align=left;verticalAlign=middle;whiteSpace=wrap;rounded=0;labelBackgroundColor=none;container=0;fontColor=#1A1A1A;" vertex="1" parent="iBeRQEw0bHEhuUZA9688-358">
          <mxGeometry x="3.5799999999999272" y="4" width="60.94" height="15" as="geometry" />
        </mxCell>
        <mxCell id="iBeRQEw0bHEhuUZA9688-276" value="&lt;span style=&quot;text-align: left;&quot;&gt;&lt;font style=&quot;font-size: 6px;&quot;&gt;-address NOT_NULL&lt;/font&gt;&lt;/span&gt;" style="text;html=1;align=center;verticalAlign=middle;whiteSpace=wrap;rounded=0;labelBackgroundColor=none;container=0;fontColor=#1A1A1A;" vertex="1" parent="iBeRQEw0bHEhuUZA9688-358">
          <mxGeometry width="63.52" height="20" as="geometry" />
        </mxCell>
        <mxCell id="iBeRQEw0bHEhuUZA9688-361" value="" style="endArrow=none;html=1;rounded=0;fontColor=default;exitX=0.5;exitY=0;exitDx=0;exitDy=0;labelBackgroundColor=none;strokeColor=#09555B;" edge="1" parent="1" source="iBeRQEw0bHEhuUZA9688-344">
          <mxGeometry width="50" height="50" relative="1" as="geometry">
            <mxPoint x="925" y="372" as="sourcePoint" />
            <mxPoint x="925.06" y="312.89" as="targetPoint" />
          </mxGeometry>
        </mxCell>
        <mxCell id="iBeRQEw0bHEhuUZA9688-364" value="&lt;font style=&quot;font-size: 10px;&quot;&gt;1&lt;/font&gt;" style="text;html=1;align=center;verticalAlign=middle;resizable=0;points=[];autosize=1;strokeColor=none;fillColor=none;labelBackgroundColor=none;fontColor=#1A1A1A;rounded=0;" vertex="1" parent="1">
          <mxGeometry x="967" y="455.89" width="30" height="30" as="geometry" />
        </mxCell>
        <mxCell id="iBeRQEw0bHEhuUZA9688-365" value="&lt;font style=&quot;font-size: 10px;&quot;&gt;1...*&lt;/font&gt;" style="text;html=1;align=center;verticalAlign=middle;resizable=0;points=[];autosize=1;strokeColor=none;fillColor=none;labelBackgroundColor=none;fontColor=#1A1A1A;rounded=0;" vertex="1" parent="1">
          <mxGeometry x="1102" y="456.89" width="40" height="30" as="geometry" />
        </mxCell>
        <mxCell id="iBeRQEw0bHEhuUZA9688-376" value="" style="group;labelBackgroundColor=none;fontColor=#1A1A1A;rounded=0;" vertex="1" connectable="0" parent="1">
          <mxGeometry x="720" y="420" width="144" height="32" as="geometry" />
        </mxCell>
        <mxCell id="iBeRQEw0bHEhuUZA9688-370" value="" style="whiteSpace=wrap;html=1;shape=mxgraph.basic.document;labelBackgroundColor=none;rounded=0;fillColor=#FAD9D5;strokeColor=#D0CEE2;fontColor=#1A1A1A;" vertex="1" parent="iBeRQEw0bHEhuUZA9688-376">
          <mxGeometry width="144" height="32" as="geometry" />
        </mxCell>
        <mxCell id="iBeRQEw0bHEhuUZA9688-371" value="&lt;div&gt;&lt;font style=&quot;font-size: 6px;&quot;&gt;-bust, waist, hips NOT_NULL CHECK&lt;/font&gt;&lt;/div&gt;&lt;div&gt;&lt;font style=&quot;font-size: 6px;&quot;&gt;(bust, waits, hips&amp;gt;10 AND bust, waist, hips&amp;lt;100)&lt;/font&gt;&lt;/div&gt;" style="text;html=1;align=left;verticalAlign=middle;whiteSpace=wrap;rounded=0;labelBackgroundColor=none;fontColor=#1A1A1A;" vertex="1" parent="iBeRQEw0bHEhuUZA9688-376">
          <mxGeometry x="2" y="2" width="132" height="23" as="geometry" />
        </mxCell>
        <mxCell id="iBeRQEw0bHEhuUZA9688-378" value="" style="group;labelBackgroundColor=none;fontColor=#1A1A1A;rounded=0;" vertex="1" connectable="0" parent="1">
          <mxGeometry x="742" y="456" width="124" height="30" as="geometry" />
        </mxCell>
        <mxCell id="iBeRQEw0bHEhuUZA9688-374" value="" style="whiteSpace=wrap;html=1;shape=mxgraph.basic.document;labelBackgroundColor=none;rounded=0;fillColor=#FAD9D5;strokeColor=#D0CEE2;fontColor=#1A1A1A;" vertex="1" parent="iBeRQEw0bHEhuUZA9688-378">
          <mxGeometry width="121.67240223463679" height="30" as="geometry" />
        </mxCell>
        <mxCell id="iBeRQEw0bHEhuUZA9688-375" value="&lt;div&gt;&lt;font style=&quot;font-size: 6px;&quot;&gt;&lt;span style=&quot;background-color: initial;&quot;&gt;-weight NOT_NULL CHECK&lt;/span&gt;&lt;/font&gt;&lt;span style=&quot;background-color: initial; font-size: 6px;&quot;&gt;&amp;nbsp;&lt;/span&gt;&lt;/div&gt;&lt;div&gt;&lt;span style=&quot;background-color: initial; font-size: 6px;&quot;&gt;(weight &amp;gt; 10 AND weight &amp;lt;1000)&lt;/span&gt;&lt;/div&gt;" style="text;html=1;align=left;verticalAlign=middle;whiteSpace=wrap;rounded=0;labelBackgroundColor=none;fontColor=#1A1A1A;" vertex="1" parent="iBeRQEw0bHEhuUZA9688-378">
          <mxGeometry x="2.08" y="6" width="107.92" height="14" as="geometry" />
        </mxCell>
        <mxCell id="iBeRQEw0bHEhuUZA9688-380" value="" style="endArrow=none;dashed=1;html=1;rounded=0;fontColor=default;entryX=-0.003;entryY=0.057;entryDx=0;entryDy=0;entryPerimeter=0;exitX=1;exitY=0.5;exitDx=0;exitDy=0;exitPerimeter=0;labelBackgroundColor=none;strokeColor=#09555B;" edge="1" parent="1" source="iBeRQEw0bHEhuUZA9688-370" target="iBeRQEw0bHEhuUZA9688-345">
          <mxGeometry width="50" height="50" relative="1" as="geometry">
            <mxPoint x="839.8" y="389.19" as="sourcePoint" />
            <mxPoint x="858.9999999999998" y="381.89000000000004" as="targetPoint" />
          </mxGeometry>
        </mxCell>
        <mxCell id="iBeRQEw0bHEhuUZA9688-382" value="" style="endArrow=none;dashed=1;html=1;rounded=0;fontColor=default;entryX=-0.024;entryY=0.415;entryDx=0;entryDy=0;entryPerimeter=0;exitX=1.005;exitY=0.561;exitDx=0;exitDy=0;exitPerimeter=0;labelBackgroundColor=none;strokeColor=#09555B;" edge="1" parent="1" source="iBeRQEw0bHEhuUZA9688-374">
          <mxGeometry width="50" height="50" relative="1" as="geometry">
            <mxPoint x="851.2123334078212" y="479.26" as="sourcePoint" />
            <mxPoint x="873.5999999999999" y="470.5400000000001" as="targetPoint" />
          </mxGeometry>
        </mxCell>
        <mxCell id="iBeRQEw0bHEhuUZA9688-383" value="Runway" style="swimlane;fontStyle=0;childLayout=stackLayout;horizontal=1;startSize=30;horizontalStack=0;resizeParent=1;resizeParentMax=0;resizeLast=0;collapsible=1;marginBottom=0;whiteSpace=wrap;html=1;labelBackgroundColor=none;rounded=0;fillColor=#FAD9D5;strokeColor=#D0CEE2;fontColor=#1A1A1A;" vertex="1" parent="1">
          <mxGeometry x="862.1400000000001" y="689.89" width="140" height="120" as="geometry" />
        </mxCell>
        <mxCell id="iBeRQEw0bHEhuUZA9688-384" value="&lt;div&gt;&lt;span style=&quot;background-color: initial;&quot;&gt;IdShow (pk&lt;/span&gt;&lt;span style=&quot;background-color: initial;&quot;&gt;)&lt;/span&gt;&lt;/div&gt;&lt;div&gt;&lt;span style=&quot;background-color: initial;&quot;&gt;Address (fk)&lt;/span&gt;&lt;/div&gt;&lt;div&gt;&lt;span style=&quot;background-color: initial;&quot;&gt;BName (fk)&lt;/span&gt;&lt;/div&gt;Date&amp;nbsp;&lt;div&gt;Time&lt;/div&gt;&lt;div&gt;Budget&lt;/div&gt;" style="text;strokeColor=none;fillColor=none;align=left;verticalAlign=middle;spacingLeft=4;spacingRight=4;overflow=hidden;points=[[0,0.5],[1,0.5]];portConstraint=eastwest;rotatable=0;whiteSpace=wrap;html=1;labelBackgroundColor=none;rounded=0;fontColor=#1A1A1A;" vertex="1" parent="iBeRQEw0bHEhuUZA9688-383">
          <mxGeometry y="30" width="140" height="90" as="geometry" />
        </mxCell>
        <mxCell id="iBeRQEw0bHEhuUZA9688-388" value="*" style="text;html=1;align=center;verticalAlign=middle;whiteSpace=wrap;rounded=0;labelBackgroundColor=none;fontColor=#1A1A1A;" vertex="1" parent="1">
          <mxGeometry x="928.6399999999999" y="558.89" width="17" height="30" as="geometry" />
        </mxCell>
        <mxCell id="iBeRQEw0bHEhuUZA9688-389" value="*" style="text;html=1;align=center;verticalAlign=middle;whiteSpace=wrap;rounded=0;labelBackgroundColor=none;fontColor=#1A1A1A;" vertex="1" parent="1">
          <mxGeometry x="933.6399999999999" y="664.89" width="9" as="geometry" />
        </mxCell>
        <mxCell id="iBeRQEw0bHEhuUZA9688-390" value="Model_Runway" style="swimlane;fontStyle=0;childLayout=stackLayout;horizontal=1;startSize=30;horizontalStack=0;resizeParent=1;resizeParentMax=0;resizeLast=0;collapsible=1;marginBottom=0;whiteSpace=wrap;html=1;labelBackgroundColor=none;rounded=0;fillColor=#FAD9D5;strokeColor=#D0CEE2;fontColor=#1A1A1A;" vertex="1" parent="1">
          <mxGeometry x="872.1399999999999" y="577.89" width="120" height="80" as="geometry" />
        </mxCell>
        <mxCell id="iBeRQEw0bHEhuUZA9688-391" value="IdShow (pk)(fk)&lt;div&gt;Name (pk)(fk)&lt;/div&gt;&lt;div&gt;Order&amp;nbsp;&lt;/div&gt;" style="text;strokeColor=none;fillColor=none;align=left;verticalAlign=middle;spacingLeft=4;spacingRight=4;overflow=hidden;points=[[0,0.5],[1,0.5]];portConstraint=eastwest;rotatable=0;whiteSpace=wrap;html=1;labelBackgroundColor=none;rounded=0;fontColor=#1A1A1A;" vertex="1" parent="iBeRQEw0bHEhuUZA9688-390">
          <mxGeometry y="30" width="120" height="50" as="geometry" />
        </mxCell>
        <mxCell id="iBeRQEw0bHEhuUZA9688-392" value="" style="endArrow=none;html=1;rounded=0;exitX=0.494;exitY=-0.003;exitDx=0;exitDy=0;entryX=0.532;entryY=1.003;entryDx=0;entryDy=0;entryPerimeter=0;exitPerimeter=0;labelBackgroundColor=none;fontColor=default;strokeColor=#09555B;" edge="1" parent="1" source="iBeRQEw0bHEhuUZA9688-390">
          <mxGeometry width="50" height="50" relative="1" as="geometry">
            <mxPoint x="882.1399999999999" y="576.89" as="sourcePoint" />
            <mxPoint x="931.1399999999999" y="534.89" as="targetPoint" />
          </mxGeometry>
        </mxCell>
        <mxCell id="iBeRQEw0bHEhuUZA9688-393" value="1" style="text;html=1;align=center;verticalAlign=middle;whiteSpace=wrap;rounded=0;labelBackgroundColor=none;fontColor=#1A1A1A;" vertex="1" parent="1">
          <mxGeometry x="928.6399999999999" y="526.89" width="17" height="30" as="geometry" />
        </mxCell>
        <mxCell id="iBeRQEw0bHEhuUZA9688-394" value="" style="endArrow=none;html=1;rounded=0;exitX=-0.21;exitY=0.809;exitDx=0;exitDy=0;exitPerimeter=0;labelBackgroundColor=none;fontColor=default;strokeColor=#09555B;" edge="1" parent="1">
          <mxGeometry width="50" height="50" relative="1" as="geometry">
            <mxPoint x="932.1399999999999" y="688.89" as="sourcePoint" />
            <mxPoint x="932.1399999999999" y="657.89" as="targetPoint" />
          </mxGeometry>
        </mxCell>
        <mxCell id="iBeRQEw0bHEhuUZA9688-396" value="" style="endArrow=none;dashed=1;html=1;dashPattern=1 3;strokeWidth=2;rounded=0;exitX=1.022;exitY=0.615;exitDx=0;exitDy=0;exitPerimeter=0;labelBackgroundColor=none;fontColor=default;entryX=-0.011;entryY=-0.003;entryDx=0;entryDy=0;entryPerimeter=0;strokeColor=#09555B;" edge="1" parent="1" source="iBeRQEw0bHEhuUZA9688-387" target="iBeRQEw0bHEhuUZA9688-391">
          <mxGeometry width="50" height="50" relative="1" as="geometry">
            <mxPoint x="822.1399999999999" y="671.89" as="sourcePoint" />
            <mxPoint x="872.1399999999999" y="621.89" as="targetPoint" />
          </mxGeometry>
        </mxCell>
        <mxCell id="iBeRQEw0bHEhuUZA9688-398" value="" style="group;labelBackgroundColor=none;fontColor=#1A1A1A;rounded=0;" vertex="1" connectable="0" parent="1">
          <mxGeometry x="777" y="583.89" width="84.05999999999995" height="30" as="geometry" />
        </mxCell>
        <mxCell id="iBeRQEw0bHEhuUZA9688-387" value="" style="whiteSpace=wrap;html=1;shape=mxgraph.basic.document;align=left;labelBackgroundColor=none;rounded=0;fillColor=#FAD9D5;strokeColor=#D0CEE2;fontColor=#1A1A1A;" vertex="1" parent="iBeRQEw0bHEhuUZA9688-398">
          <mxGeometry x="1" width="83.06" height="30" as="geometry" />
        </mxCell>
        <mxCell id="iBeRQEw0bHEhuUZA9688-397" value="&lt;font style=&quot;font-size: 6px;&quot;&gt;-order NOT_NULL CHECK&lt;/font&gt;&lt;div&gt;&lt;font style=&quot;font-size: 6px;&quot;&gt;(order&amp;gt;0 AND order&amp;lt;100)&lt;/font&gt;&lt;/div&gt;" style="text;html=1;align=center;verticalAlign=middle;whiteSpace=wrap;rounded=0;labelBackgroundColor=none;fontColor=#1A1A1A;" vertex="1" parent="iBeRQEw0bHEhuUZA9688-398">
          <mxGeometry width="80" height="30" as="geometry" />
        </mxCell>
        <mxCell id="iBeRQEw0bHEhuUZA9688-401" value="" style="whiteSpace=wrap;html=1;shape=mxgraph.basic.document;labelBackgroundColor=none;rounded=0;fillColor=#FAD9D5;strokeColor=#D0CEE2;fontColor=#1A1A1A;" vertex="1" parent="1">
          <mxGeometry x="1021.2999999999997" y="679.89" width="61.6" height="19" as="geometry" />
        </mxCell>
        <mxCell id="iBeRQEw0bHEhuUZA9688-406" value="&lt;span style=&quot;&quot;&gt;&lt;font style=&quot;font-size: 6px;&quot;&gt;-bname NOT_NULL&lt;/font&gt;&lt;/span&gt;" style="text;html=1;align=left;verticalAlign=middle;whiteSpace=wrap;rounded=0;labelBackgroundColor=none;fontColor=#1A1A1A;" vertex="1" parent="1">
          <mxGeometry x="1022.3799999999999" y="677.89" width="60.52" height="19" as="geometry" />
        </mxCell>
        <mxCell id="iBeRQEw0bHEhuUZA9688-410" value="" style="group;labelBackgroundColor=none;fontColor=#1A1A1A;rounded=0;" vertex="1" connectable="0" parent="1">
          <mxGeometry x="1019.8999999999999" y="698.89" width="63" height="15.470000000000027" as="geometry" />
        </mxCell>
        <mxCell id="iBeRQEw0bHEhuUZA9688-402" value="" style="whiteSpace=wrap;html=1;shape=mxgraph.basic.document;labelBackgroundColor=none;rounded=0;fillColor=#FAD9D5;strokeColor=#D0CEE2;fontColor=#1A1A1A;" vertex="1" parent="iBeRQEw0bHEhuUZA9688-410">
          <mxGeometry x="2" y="2" width="61" height="13.47" as="geometry" />
        </mxCell>
        <mxCell id="iBeRQEw0bHEhuUZA9688-404" value="&lt;div style=&quot;text-align: left;&quot;&gt;&lt;font style=&quot;font-size: 6px;&quot;&gt;-date NOT_NULL&lt;/font&gt;&lt;br&gt;&lt;/div&gt;" style="text;html=1;align=center;verticalAlign=middle;whiteSpace=wrap;rounded=0;labelBackgroundColor=none;fontColor=#1A1A1A;" vertex="1" parent="iBeRQEw0bHEhuUZA9688-410">
          <mxGeometry width="55.97" height="13.47" as="geometry" />
        </mxCell>
        <mxCell id="iBeRQEw0bHEhuUZA9688-411" value="" style="group;labelBackgroundColor=none;fontColor=#1A1A1A;rounded=0;" vertex="1" connectable="0" parent="1">
          <mxGeometry x="1021.5699999999999" y="715.89" width="52" height="19.5" as="geometry" />
        </mxCell>
        <mxCell id="iBeRQEw0bHEhuUZA9688-399" value="" style="whiteSpace=wrap;html=1;shape=mxgraph.basic.document;labelBackgroundColor=none;rounded=0;fillColor=#FAD9D5;strokeColor=#D0CEE2;fontColor=#1A1A1A;" vertex="1" parent="iBeRQEw0bHEhuUZA9688-411">
          <mxGeometry y="2" width="52" height="17.5" as="geometry" />
        </mxCell>
        <mxCell id="iBeRQEw0bHEhuUZA9688-400" value="&lt;div&gt;&lt;div&gt;&lt;font style=&quot;font-size: 6px;&quot;&gt;-time NOT_NULL&lt;/font&gt;&lt;/div&gt;&lt;/div&gt;" style="text;html=1;align=left;verticalAlign=middle;whiteSpace=wrap;rounded=0;labelBackgroundColor=none;fontColor=#1A1A1A;" vertex="1" parent="iBeRQEw0bHEhuUZA9688-411">
          <mxGeometry x="0.7100000000000364" width="50.29" height="17.5" as="geometry" />
        </mxCell>
        <mxCell id="iBeRQEw0bHEhuUZA9688-416" value="Event" style="swimlane;fontStyle=0;childLayout=stackLayout;horizontal=1;startSize=30;horizontalStack=0;resizeParent=1;resizeParentMax=0;resizeLast=0;collapsible=1;marginBottom=0;whiteSpace=wrap;html=1;labelBackgroundColor=none;rounded=0;fillColor=#FAD9D5;strokeColor=#D0CEE2;fontColor=#1A1A1A;" vertex="1" parent="1">
          <mxGeometry x="1132.4399999999998" y="577.89" width="140" height="80" as="geometry" />
        </mxCell>
        <mxCell id="iBeRQEw0bHEhuUZA9688-425" value="" style="endArrow=none;dashed=1;html=1;rounded=0;fontColor=default;entryX=0;entryY=0.5;entryDx=0;entryDy=0;labelBackgroundColor=none;strokeColor=#09555B;" edge="1" parent="iBeRQEw0bHEhuUZA9688-416" target="iBeRQEw0bHEhuUZA9688-416">
          <mxGeometry width="50" height="50" relative="1" as="geometry">
            <mxPoint x="-15.939999999999827" y="31" as="sourcePoint" />
            <mxPoint x="34.06000000000017" y="-19" as="targetPoint" />
          </mxGeometry>
        </mxCell>
        <mxCell id="iBeRQEw0bHEhuUZA9688-417" value="&lt;div&gt;Address (pk)&lt;br&gt;&lt;/div&gt;&lt;div&gt;Budget&lt;/div&gt;&lt;div&gt;Responsible Entity&lt;/div&gt;" style="text;strokeColor=none;fillColor=none;align=left;verticalAlign=middle;spacingLeft=4;spacingRight=4;overflow=hidden;points=[[0,0.5],[1,0.5]];portConstraint=eastwest;rotatable=0;whiteSpace=wrap;html=1;labelBackgroundColor=none;rounded=0;fontColor=#1A1A1A;" vertex="1" parent="iBeRQEw0bHEhuUZA9688-416">
          <mxGeometry y="30" width="140" height="50" as="geometry" />
        </mxCell>
        <mxCell id="iBeRQEw0bHEhuUZA9688-420" value="" style="endArrow=none;html=1;rounded=0;fontColor=default;exitX=1;exitY=0.5;exitDx=0;exitDy=0;entryX=0.495;entryY=1.009;entryDx=0;entryDy=0;entryPerimeter=0;labelBackgroundColor=none;strokeColor=#09555B;" edge="1" parent="1" source="iBeRQEw0bHEhuUZA9688-384" target="iBeRQEw0bHEhuUZA9688-417">
          <mxGeometry width="50" height="50" relative="1" as="geometry">
            <mxPoint x="1162.71" y="707.89" as="sourcePoint" />
            <mxPoint x="1213" y="659.89" as="targetPoint" />
            <Array as="points">
              <mxPoint x="1201" y="764.89" />
            </Array>
          </mxGeometry>
        </mxCell>
        <mxCell id="iBeRQEw0bHEhuUZA9688-421" value="" style="endArrow=none;html=1;rounded=0;fontColor=default;exitX=0.598;exitY=0;exitDx=0;exitDy=0;exitPerimeter=0;labelBackgroundColor=none;strokeColor=#09555B;" edge="1" parent="1" source="iBeRQEw0bHEhuUZA9688-416">
          <mxGeometry width="50" height="50" relative="1" as="geometry">
            <mxPoint x="1217" y="575" as="sourcePoint" />
            <mxPoint x="1215.32" y="465.37" as="targetPoint" />
          </mxGeometry>
        </mxCell>
        <mxCell id="iBeRQEw0bHEhuUZA9688-422" value="&lt;span style=&quot;text-align: left;&quot;&gt;&lt;font style=&quot;font-size: 6px;&quot;&gt;-budget NOT_NULL&lt;/font&gt;&lt;/span&gt;" style="whiteSpace=wrap;html=1;shape=mxgraph.basic.document;labelBackgroundColor=none;rounded=0;fillColor=#FAD9D5;strokeColor=#D0CEE2;fontColor=#1A1A1A;" vertex="1" parent="1">
          <mxGeometry x="1043.71" y="621.89" width="72.79" height="18" as="geometry" />
        </mxCell>
        <mxCell id="iBeRQEw0bHEhuUZA9688-423" value="" style="whiteSpace=wrap;html=1;shape=mxgraph.basic.document;labelBackgroundColor=none;rounded=0;fillColor=#FAD9D5;strokeColor=#D0CEE2;fontColor=#1A1A1A;" vertex="1" parent="1">
          <mxGeometry x="1018.4200000000001" y="596.14" width="99.29" height="21.5" as="geometry" />
        </mxCell>
        <mxCell id="iBeRQEw0bHEhuUZA9688-424" value="&lt;div style=&quot;text-align: left;&quot;&gt;&lt;div&gt;&lt;font style=&quot;font-size: 6px;&quot;&gt;-responsible entity NOT_NULL&lt;/font&gt;&lt;/div&gt;&lt;/div&gt;" style="text;html=1;align=center;verticalAlign=middle;whiteSpace=wrap;rounded=0;labelBackgroundColor=none;fontColor=#1A1A1A;" vertex="1" parent="1">
          <mxGeometry x="1018.4200000000001" y="597.89" width="90" height="14.5" as="geometry" />
        </mxCell>
        <mxCell id="iBeRQEw0bHEhuUZA9688-426" value="" style="endArrow=none;dashed=1;html=1;rounded=0;fontColor=default;entryX=0;entryY=0.5;entryDx=0;entryDy=0;labelBackgroundColor=none;strokeColor=#09555B;" edge="1" parent="1">
          <mxGeometry width="50" height="50" relative="1" as="geometry">
            <mxPoint x="1116.5" y="630.89" as="sourcePoint" />
            <mxPoint x="1132.4399999999998" y="639.89" as="targetPoint" />
          </mxGeometry>
        </mxCell>
        <mxCell id="iBeRQEw0bHEhuUZA9688-428" value="Sponsor" style="swimlane;fontStyle=0;childLayout=stackLayout;horizontal=1;startSize=30;horizontalStack=0;resizeParent=1;resizeParentMax=0;resizeLast=0;collapsible=1;marginBottom=0;whiteSpace=wrap;html=1;labelBackgroundColor=none;rounded=0;fillColor=#FAD9D5;strokeColor=#D0CEE2;fontColor=#1A1A1A;" vertex="1" parent="1">
          <mxGeometry x="1315.71" y="575.89" width="140" height="110" as="geometry" />
        </mxCell>
        <mxCell id="iBeRQEw0bHEhuUZA9688-429" value="&lt;div&gt;Company&lt;/div&gt;&lt;div&gt;Email&lt;/div&gt;&lt;div&gt;Value&lt;/div&gt;&lt;div&gt;Resources&lt;/div&gt;&lt;div style=&quot;&quot;&gt;Agreements&lt;/div&gt;" style="text;strokeColor=none;fillColor=none;align=left;verticalAlign=middle;spacingLeft=4;spacingRight=4;overflow=hidden;points=[[0,0.5],[1,0.5]];portConstraint=eastwest;rotatable=0;whiteSpace=wrap;html=1;labelBackgroundColor=none;rounded=0;fontColor=#1A1A1A;" vertex="1" parent="iBeRQEw0bHEhuUZA9688-428">
          <mxGeometry y="30" width="140" height="80" as="geometry" />
        </mxCell>
        <mxCell id="iBeRQEw0bHEhuUZA9688-430" value="" style="endArrow=none;html=1;rounded=0;fontColor=default;exitX=1.001;exitY=0.393;exitDx=0;exitDy=0;exitPerimeter=0;entryX=-0.001;entryY=0.273;entryDx=0;entryDy=0;entryPerimeter=0;labelBackgroundColor=none;strokeColor=#09555B;" edge="1" parent="1" source="iBeRQEw0bHEhuUZA9688-417" target="iBeRQEw0bHEhuUZA9688-429">
          <mxGeometry width="50" height="50" relative="1" as="geometry">
            <mxPoint x="1301" y="629.89" as="sourcePoint" />
            <mxPoint x="1351" y="579.89" as="targetPoint" />
          </mxGeometry>
        </mxCell>
        <mxCell id="iBeRQEw0bHEhuUZA9688-431" value="" style="whiteSpace=wrap;html=1;shape=mxgraph.basic.document;labelBackgroundColor=none;rounded=0;fillColor=#FAD9D5;strokeColor=#D0CEE2;fontColor=#1A1A1A;" vertex="1" parent="1">
          <mxGeometry x="1480" y="676.89" width="82" height="17" as="geometry" />
        </mxCell>
        <mxCell id="iBeRQEw0bHEhuUZA9688-441" value="" style="endArrow=none;dashed=1;html=1;rounded=0;entryX=-0.024;entryY=0.513;entryDx=0;entryDy=0;entryPerimeter=0;exitX=0.999;exitY=0.03;exitDx=0;exitDy=0;exitPerimeter=0;labelBackgroundColor=none;fontColor=default;strokeColor=#09555B;" edge="1" parent="1" target="iBeRQEw0bHEhuUZA9688-444">
          <mxGeometry width="50" height="50" relative="1" as="geometry">
            <mxPoint x="1455.9299999999998" y="611.89" as="sourcePoint" />
            <mxPoint x="1505.87" y="557.89" as="targetPoint" />
          </mxGeometry>
        </mxCell>
        <mxCell id="iBeRQEw0bHEhuUZA9688-442" value="" style="endArrow=none;dashed=1;html=1;rounded=0;entryX=0.026;entryY=0.466;entryDx=0;entryDy=0;entryPerimeter=0;exitX=1.01;exitY=0.257;exitDx=0;exitDy=0;exitPerimeter=0;labelBackgroundColor=none;fontColor=default;strokeColor=#09555B;" edge="1" parent="1" target="iBeRQEw0bHEhuUZA9688-440">
          <mxGeometry width="50" height="50" relative="1" as="geometry">
            <mxPoint x="1456.9299999999998" y="630.89" as="sourcePoint" />
            <mxPoint x="1664.5299999999997" y="568.97" as="targetPoint" />
          </mxGeometry>
        </mxCell>
        <mxCell id="iBeRQEw0bHEhuUZA9688-443" value="" style="endArrow=none;dashed=1;html=1;rounded=0;entryX=0;entryY=0.5;entryDx=0;entryDy=0;entryPerimeter=0;exitX=1.005;exitY=0.636;exitDx=0;exitDy=0;exitPerimeter=0;labelBackgroundColor=none;fontColor=default;strokeColor=#09555B;" edge="1" parent="1" target="iBeRQEw0bHEhuUZA9688-445">
          <mxGeometry width="50" height="50" relative="1" as="geometry">
            <mxPoint x="1456.9299999999998" y="660.89" as="sourcePoint" />
            <mxPoint x="1506.08" y="637.89" as="targetPoint" />
          </mxGeometry>
        </mxCell>
        <mxCell id="iBeRQEw0bHEhuUZA9688-445" value="&lt;div&gt;&lt;span style=&quot;text-align: left; background-color: initial;&quot;&gt;&lt;font style=&quot;font-size: 6px;&quot;&gt;-resources NOT_NULL&lt;/font&gt;&lt;/span&gt;&lt;br&gt;&lt;/div&gt;" style="whiteSpace=wrap;html=1;shape=mxgraph.basic.document;labelBackgroundColor=none;rounded=0;fillColor=#FAD9D5;strokeColor=#D0CEE2;fontColor=#1A1A1A;" vertex="1" parent="1">
          <mxGeometry x="1480.6" y="651.89" width="72.94" height="21" as="geometry" />
        </mxCell>
        <mxCell id="iBeRQEw0bHEhuUZA9688-446" value="&lt;div style=&quot;text-align: left;&quot;&gt;&lt;font style=&quot;font-size: 6px;&quot;&gt;-agreements NOT_NULL&lt;/font&gt;&lt;br&gt;&lt;/div&gt;" style="text;html=1;align=center;verticalAlign=middle;whiteSpace=wrap;rounded=0;labelBackgroundColor=none;fontColor=#1A1A1A;" vertex="1" parent="1">
          <mxGeometry x="1480.17" y="677.89" width="77.83" height="13.5" as="geometry" />
        </mxCell>
        <mxCell id="iBeRQEw0bHEhuUZA9688-447" value="" style="endArrow=none;dashed=1;html=1;rounded=0;entryX=-0.029;entryY=0.536;entryDx=0;entryDy=0;entryPerimeter=0;exitX=1;exitY=0.5;exitDx=0;exitDy=0;labelBackgroundColor=none;fontColor=default;strokeColor=#09555B;" edge="1" parent="1" target="iBeRQEw0bHEhuUZA9688-435">
          <mxGeometry width="50" height="50" relative="1" as="geometry">
            <mxPoint x="1455.9299999999998" y="649.89" as="sourcePoint" />
            <mxPoint x="1505.9299999999998" y="615.89" as="targetPoint" />
          </mxGeometry>
        </mxCell>
        <mxCell id="iBeRQEw0bHEhuUZA9688-448" value="" style="endArrow=none;dashed=1;html=1;rounded=0;entryX=-0.005;entryY=0.545;entryDx=0;entryDy=0;entryPerimeter=0;exitX=1.003;exitY=0.81;exitDx=0;exitDy=0;exitPerimeter=0;labelBackgroundColor=none;fontColor=default;strokeColor=#09555B;" edge="1" parent="1" target="iBeRQEw0bHEhuUZA9688-431">
          <mxGeometry width="50" height="50" relative="1" as="geometry">
            <mxPoint x="1455.9299999999998" y="674.89" as="sourcePoint" />
            <mxPoint x="1505.9299999999998" y="649.89" as="targetPoint" />
          </mxGeometry>
        </mxCell>
        <mxCell id="iBeRQEw0bHEhuUZA9688-449" value="" style="group;labelBackgroundColor=none;fontColor=#1A1A1A;rounded=0;" vertex="1" connectable="0" parent="1">
          <mxGeometry x="1481" y="573.89" width="72.53999999999996" height="31.75" as="geometry" />
        </mxCell>
        <mxCell id="iBeRQEw0bHEhuUZA9688-437" value="" style="whiteSpace=wrap;html=1;shape=mxgraph.basic.document;labelBackgroundColor=none;rounded=0;fillColor=#FAD9D5;strokeColor=#D0CEE2;fontColor=#1A1A1A;" vertex="1" parent="iBeRQEw0bHEhuUZA9688-449">
          <mxGeometry x="0.9200000000000728" y="12.75" width="71.62" height="19" as="geometry" />
        </mxCell>
        <mxCell id="iBeRQEw0bHEhuUZA9688-444" value="&lt;span style=&quot;text-align: left;&quot;&gt;&lt;font style=&quot;font-size: 6px;&quot;&gt;-company NOT_NULL&lt;/font&gt;&lt;/span&gt;" style="text;html=1;align=center;verticalAlign=middle;whiteSpace=wrap;rounded=0;labelBackgroundColor=none;fontColor=#1A1A1A;" vertex="1" parent="iBeRQEw0bHEhuUZA9688-449">
          <mxGeometry y="12.75" width="72.54" height="19" as="geometry" />
        </mxCell>
        <mxCell id="iBeRQEw0bHEhuUZA9688-450" value="" style="group;labelBackgroundColor=none;fontColor=#1A1A1A;rounded=0;" vertex="1" connectable="0" parent="1">
          <mxGeometry x="1481" y="609.89" width="62" height="16" as="geometry" />
        </mxCell>
        <mxCell id="iBeRQEw0bHEhuUZA9688-438" value="" style="whiteSpace=wrap;html=1;shape=mxgraph.basic.document;labelBackgroundColor=none;rounded=0;fillColor=#FAD9D5;strokeColor=#D0CEE2;fontColor=#1A1A1A;" vertex="1" parent="iBeRQEw0bHEhuUZA9688-450">
          <mxGeometry x="0.17000000000007276" width="61.83" height="16" as="geometry" />
        </mxCell>
        <mxCell id="iBeRQEw0bHEhuUZA9688-440" value="&lt;div style=&quot;text-align: left;&quot;&gt;&lt;font style=&quot;font-size: 6px;&quot;&gt;-email NOT_NULL&lt;/font&gt;&lt;br&gt;&lt;/div&gt;" style="text;html=1;align=center;verticalAlign=middle;whiteSpace=wrap;rounded=0;labelBackgroundColor=none;fontColor=#1A1A1A;" vertex="1" parent="iBeRQEw0bHEhuUZA9688-450">
          <mxGeometry y="2" width="56.83" height="12" as="geometry" />
        </mxCell>
        <mxCell id="iBeRQEw0bHEhuUZA9688-451" value="" style="group;labelBackgroundColor=none;fontColor=#1A1A1A;rounded=0;" vertex="1" connectable="0" parent="1">
          <mxGeometry x="1481" y="629.89" width="61.82999999999993" height="20" as="geometry" />
        </mxCell>
        <mxCell id="iBeRQEw0bHEhuUZA9688-435" value="" style="whiteSpace=wrap;html=1;shape=mxgraph.basic.document;labelBackgroundColor=none;rounded=0;fillColor=#FAD9D5;strokeColor=#D0CEE2;fontColor=#1A1A1A;" vertex="1" parent="iBeRQEw0bHEhuUZA9688-451">
          <mxGeometry x="0.2899999999999636" width="61.54" height="20" as="geometry" />
        </mxCell>
        <mxCell id="iBeRQEw0bHEhuUZA9688-436" value="&lt;div&gt;&lt;span style=&quot;background-color: initial;&quot;&gt;&lt;font style=&quot;font-size: 6px;&quot;&gt;-value NOT_NULL&lt;/font&gt;&lt;/span&gt;&lt;br&gt;&lt;/div&gt;" style="text;html=1;align=left;verticalAlign=middle;whiteSpace=wrap;rounded=0;labelBackgroundColor=none;fontColor=#1A1A1A;" vertex="1" parent="iBeRQEw0bHEhuUZA9688-451">
          <mxGeometry y="0.5" width="57.83" height="14" as="geometry" />
        </mxCell>
        <mxCell id="iBeRQEw0bHEhuUZA9688-212" value="Influencer" style="swimlane;fontStyle=0;childLayout=stackLayout;horizontal=1;startSize=30;horizontalStack=0;resizeParent=1;resizeParentMax=0;resizeLast=0;collapsible=1;marginBottom=0;whiteSpace=wrap;html=1;labelBackgroundColor=none;rounded=0;fillColor=#FAD9D5;strokeColor=#D0CEE2;fontColor=#1A1A1A;" vertex="1" parent="1">
          <mxGeometry x="332.0799999999999" y="449" width="140" height="80" as="geometry" />
        </mxCell>
        <mxCell id="iBeRQEw0bHEhuUZA9688-213" value="&lt;div&gt;NumFollowers&lt;/div&gt;&lt;div&gt;InstagramHandle&lt;/div&gt;" style="text;strokeColor=none;fillColor=none;align=left;verticalAlign=middle;spacingLeft=4;spacingRight=4;overflow=hidden;points=[[0,0.5],[1,0.5]];portConstraint=eastwest;rotatable=0;whiteSpace=wrap;html=1;labelBackgroundColor=none;rounded=0;fontColor=#1A1A1A;" vertex="1" parent="iBeRQEw0bHEhuUZA9688-212">
          <mxGeometry y="30" width="140" height="50" as="geometry" />
        </mxCell>
        <mxCell id="iBeRQEw0bHEhuUZA9688-216" value="Media" style="swimlane;fontStyle=0;childLayout=stackLayout;horizontal=1;startSize=30;horizontalStack=0;resizeParent=1;resizeParentMax=0;resizeLast=0;collapsible=1;marginBottom=0;whiteSpace=wrap;html=1;labelBackgroundColor=none;rounded=0;fillColor=#FAD9D5;strokeColor=#D0CEE2;fontColor=#1A1A1A;" vertex="1" parent="1">
          <mxGeometry x="516" y="452" width="160" height="80" as="geometry" />
        </mxCell>
        <mxCell id="iBeRQEw0bHEhuUZA9688-217" value="&lt;div&gt;Occupation&lt;/div&gt;&lt;div&gt;MeansofCommunication&lt;/div&gt;" style="text;strokeColor=none;fillColor=none;align=left;verticalAlign=middle;spacingLeft=4;spacingRight=4;overflow=hidden;points=[[0,0.5],[1,0.5]];portConstraint=eastwest;rotatable=0;whiteSpace=wrap;html=1;labelBackgroundColor=none;rounded=0;fontColor=#1A1A1A;" vertex="1" parent="iBeRQEw0bHEhuUZA9688-216">
          <mxGeometry y="30" width="160" height="50" as="geometry" />
        </mxCell>
        <mxCell id="iBeRQEw0bHEhuUZA9688-241" value="" style="endArrow=none;dashed=1;html=1;rounded=0;labelBackgroundColor=none;fontColor=default;entryX=0.382;entryY=1.035;entryDx=0;entryDy=0;entryPerimeter=0;strokeColor=#09555B;" edge="1" parent="1">
          <mxGeometry width="50" height="50" relative="1" as="geometry">
            <mxPoint x="533" y="545" as="sourcePoint" />
            <mxPoint x="544.1199999999999" y="533.75" as="targetPoint" />
          </mxGeometry>
        </mxCell>
        <mxCell id="iBeRQEw0bHEhuUZA9688-223" value="" style="triangle;whiteSpace=wrap;html=1;rotation=-90;labelBackgroundColor=none;rounded=0;fillColor=#FAD9D5;strokeColor=#D0CEE2;fontColor=#1A1A1A;" vertex="1" parent="1">
          <mxGeometry x="631.29" y="405.39" width="9.4" height="10" as="geometry" />
        </mxCell>
        <mxCell id="iBeRQEw0bHEhuUZA9688-254" value="" style="group;labelBackgroundColor=none;fontColor=#1A1A1A;rounded=0;" vertex="1" connectable="0" parent="1">
          <mxGeometry x="222" y="500" width="88.56" height="16.5" as="geometry" />
        </mxCell>
        <mxCell id="iBeRQEw0bHEhuUZA9688-243" value="" style="whiteSpace=wrap;html=1;shape=mxgraph.basic.document;labelBackgroundColor=none;rounded=0;fillColor=#FAD9D5;strokeColor=#D0CEE2;fontColor=#1A1A1A;" vertex="1" parent="iBeRQEw0bHEhuUZA9688-254">
          <mxGeometry y="2.4574468085106385" width="88.56000000000006" height="14.042553191489361" as="geometry" />
        </mxCell>
        <mxCell id="iBeRQEw0bHEhuUZA9688-244" value="&lt;div style=&quot;text-align: left;&quot;&gt;&lt;font style=&quot;font-size: 6px;&quot;&gt;-NumFollowers NOT_NULL&lt;/font&gt;&lt;br&gt;&lt;/div&gt;" style="text;html=1;align=center;verticalAlign=middle;whiteSpace=wrap;rounded=0;labelBackgroundColor=none;fontColor=#1A1A1A;" vertex="1" parent="iBeRQEw0bHEhuUZA9688-254">
          <mxGeometry x="0.1799999999998364" width="78.38000000000005" height="14.042553191489361" as="geometry" />
        </mxCell>
        <mxCell id="iBeRQEw0bHEhuUZA9688-256" value="" style="group;labelBackgroundColor=none;fontColor=#1A1A1A;rounded=0;" vertex="1" connectable="0" parent="1">
          <mxGeometry x="222" y="474.75" width="90" height="17" as="geometry" />
        </mxCell>
        <mxCell id="iBeRQEw0bHEhuUZA9688-209" value="&lt;div&gt;&lt;br&gt;&lt;/div&gt;" style="whiteSpace=wrap;html=1;shape=mxgraph.basic.document;labelBackgroundColor=none;rounded=0;fillColor=#FAD9D5;strokeColor=#D0CEE2;fontColor=#1A1A1A;" vertex="1" parent="iBeRQEw0bHEhuUZA9688-256">
          <mxGeometry y="2.217391304347826" width="90" height="14.782608695652172" as="geometry" />
        </mxCell>
        <mxCell id="iBeRQEw0bHEhuUZA9688-230" value="&lt;div&gt;&lt;font style=&quot;font-size: 6px;&quot;&gt;&lt;br&gt;&lt;/font&gt;&lt;/div&gt;&lt;div&gt;&lt;font style=&quot;font-size: 6px;&quot;&gt;-InstagramHandle NOT_NULL&lt;/font&gt;&lt;/div&gt;" style="text;html=1;align=left;verticalAlign=middle;whiteSpace=wrap;rounded=0;labelBackgroundColor=none;fontColor=#1A1A1A;" vertex="1" parent="iBeRQEw0bHEhuUZA9688-256">
          <mxGeometry y="-2" width="90" height="7.391304347826086" as="geometry" />
        </mxCell>
        <mxCell id="iBeRQEw0bHEhuUZA9688-242" value="" style="endArrow=none;dashed=1;html=1;rounded=0;labelBackgroundColor=none;fontColor=default;exitX=0.619;exitY=1.049;exitDx=0;exitDy=0;exitPerimeter=0;strokeColor=#09555B;" edge="1" parent="1">
          <mxGeometry width="50" height="50" relative="1" as="geometry">
            <mxPoint x="582.04" y="532.73" as="sourcePoint" />
            <mxPoint x="603" y="545" as="targetPoint" />
          </mxGeometry>
        </mxCell>
        <mxCell id="iBeRQEw0bHEhuUZA9688-482" value="" style="group;labelBackgroundColor=none;fontColor=#1A1A1A;rounded=0;" vertex="1" connectable="0" parent="1">
          <mxGeometry x="430" y="248.39" width="236.5" height="79" as="geometry" />
        </mxCell>
        <mxCell id="iBeRQEw0bHEhuUZA9688-483" value="" style="group;labelBackgroundColor=none;fontColor=#1A1A1A;rounded=0;" vertex="1" connectable="0" parent="iBeRQEw0bHEhuUZA9688-482">
          <mxGeometry x="123" y="96" width="229.99999999999997" height="60" as="geometry" />
        </mxCell>
        <mxCell id="iBeRQEw0bHEhuUZA9688-487" value="Spectator" style="swimlane;fontStyle=0;childLayout=stackLayout;horizontal=1;startSize=30;horizontalStack=0;resizeParent=1;resizeParentMax=0;resizeLast=0;collapsible=1;marginBottom=0;whiteSpace=wrap;html=1;labelBackgroundColor=none;fillColor=#FAD9D5;strokeColor=#D0CEE2;fontColor=#1A1A1A;rounded=0;" vertex="1" parent="iBeRQEw0bHEhuUZA9688-483">
          <mxGeometry x="39.17814440786363" width="127.6217955831761" height="60" as="geometry" />
        </mxCell>
        <mxCell id="iBeRQEw0bHEhuUZA9688-488" value="Seat" style="text;strokeColor=none;fillColor=none;align=left;verticalAlign=middle;spacingLeft=4;spacingRight=4;overflow=hidden;points=[[0,0.5],[1,0.5]];portConstraint=eastwest;rotatable=0;whiteSpace=wrap;html=1;labelBackgroundColor=none;fontColor=#1A1A1A;rounded=0;" vertex="1" parent="iBeRQEw0bHEhuUZA9688-487">
          <mxGeometry y="30" width="127.6217955831761" height="30" as="geometry" />
        </mxCell>
        <mxCell id="iBeRQEw0bHEhuUZA9688-489" value="" style="endArrow=none;html=1;rounded=0;fontColor=default;exitX=0.5;exitY=0;exitDx=0;exitDy=0;labelBackgroundColor=none;strokeColor=#09555B;" edge="1" parent="iBeRQEw0bHEhuUZA9688-487">
          <mxGeometry width="50" height="50" relative="1" as="geometry">
            <mxPoint x="63.81089779158822" as="sourcePoint" />
            <mxPoint x="63.82185559213633" y="-32.389999999999986" as="targetPoint" />
          </mxGeometry>
        </mxCell>
        <mxCell id="iBeRQEw0bHEhuUZA9688-490" value="" style="triangle;whiteSpace=wrap;html=1;direction=north;labelBackgroundColor=none;fillColor=#FAD9D5;strokeColor=#D0CEE2;fontColor=#1A1A1A;rounded=0;" vertex="1" parent="iBeRQEw0bHEhuUZA9688-482">
          <mxGeometry x="230.5" width="20" height="20" as="geometry" />
        </mxCell>
        <mxCell id="iBeRQEw0bHEhuUZA9688-620" value="" style="endArrow=none;html=1;rounded=0;fontColor=default;labelBackgroundColor=none;strokeColor=#09555B;" edge="1" parent="iBeRQEw0bHEhuUZA9688-482">
          <mxGeometry width="50" height="50" relative="1" as="geometry">
            <mxPoint x="-264" y="63.610000000000014" as="sourcePoint" />
            <mxPoint x="746" y="63.610000000000014" as="targetPoint" />
          </mxGeometry>
        </mxCell>
        <mxCell id="iBeRQEw0bHEhuUZA9688-239" value="" style="whiteSpace=wrap;html=1;shape=mxgraph.basic.document;labelBackgroundColor=none;rounded=0;fillColor=#FAD9D5;strokeColor=#D0CEE2;fontColor=#1A1A1A;" vertex="1" parent="1">
          <mxGeometry x="496.9999999999998" y="544.89" width="75.14" height="20" as="geometry" />
        </mxCell>
        <mxCell id="iBeRQEw0bHEhuUZA9688-240" value="&lt;div style=&quot;text-align: left;&quot;&gt;&lt;font style=&quot;font-size: 6px;&quot;&gt;-Occupation NOT_NULL&lt;/font&gt;&lt;br&gt;&lt;/div&gt;" style="text;html=1;align=center;verticalAlign=middle;whiteSpace=wrap;rounded=0;labelBackgroundColor=none;fontColor=#1A1A1A;" vertex="1" parent="1">
          <mxGeometry x="497.00999999999976" y="544.89" width="75.14" height="20" as="geometry" />
        </mxCell>
        <mxCell id="iBeRQEw0bHEhuUZA9688-493" value="" style="group;labelBackgroundColor=none;fontColor=#1A1A1A;rounded=0;" vertex="1" connectable="0" parent="1">
          <mxGeometry x="573" y="542" width="124.84999999999991" height="21.5" as="geometry" />
        </mxCell>
        <mxCell id="iBeRQEw0bHEhuUZA9688-491" value="" style="whiteSpace=wrap;html=1;shape=mxgraph.basic.document;labelBackgroundColor=none;rounded=0;fillColor=#FAD9D5;strokeColor=#D0CEE2;fontColor=#1A1A1A;" vertex="1" parent="iBeRQEw0bHEhuUZA9688-493">
          <mxGeometry x="10" y="3" width="114.85" height="18.5" as="geometry" />
        </mxCell>
        <mxCell id="iBeRQEw0bHEhuUZA9688-492" value="&lt;div&gt;&lt;font style=&quot;background-color: initial; font-size: 6px;&quot;&gt;-MeansofCommunication &lt;/font&gt;&lt;font style=&quot;background-color: initial; font-size: 6px;&quot;&gt;NOT_NULL&lt;/font&gt;&lt;br&gt;&lt;/div&gt;" style="text;html=1;align=left;verticalAlign=middle;whiteSpace=wrap;rounded=0;labelBackgroundColor=none;fontColor=#1A1A1A;" vertex="1" parent="iBeRQEw0bHEhuUZA9688-493">
          <mxGeometry x="10" y="6" width="110" height="9.5" as="geometry" />
        </mxCell>
        <mxCell id="iBeRQEw0bHEhuUZA9688-486" value="" style="endArrow=none;dashed=1;html=1;dashPattern=1 3;strokeWidth=2;rounded=0;fontColor=default;entryX=0;entryY=0.5;entryDx=0;entryDy=0;exitX=1.002;exitY=0.629;exitDx=0;exitDy=0;exitPerimeter=0;labelBackgroundColor=none;strokeColor=#09555B;" edge="1" parent="1" source="iBeRQEw0bHEhuUZA9688-484" target="iBeRQEw0bHEhuUZA9688-488">
          <mxGeometry width="50" height="50" relative="1" as="geometry">
            <mxPoint x="637.1364393515933" y="381.89" as="sourcePoint" />
            <mxPoint x="656.0017272219118" y="381.89" as="targetPoint" />
            <Array as="points" />
          </mxGeometry>
        </mxCell>
        <mxCell id="iBeRQEw0bHEhuUZA9688-497" value="" style="group;labelBackgroundColor=none;fontColor=#1A1A1A;rounded=0;" vertex="1" connectable="0" parent="1">
          <mxGeometry x="521.0015204024596" y="360" width="56.8035885969814" height="12.25" as="geometry" />
        </mxCell>
        <mxCell id="iBeRQEw0bHEhuUZA9688-484" value="" style="whiteSpace=wrap;html=1;shape=mxgraph.basic.document;labelBackgroundColor=none;rounded=0;container=0;fillColor=#FAD9D5;strokeColor=#D0CEE2;fontColor=#1A1A1A;" vertex="1" parent="iBeRQEw0bHEhuUZA9688-497">
          <mxGeometry x="0.00020681945215983433" y="0.25" width="56.80338177752934" height="12" as="geometry" />
        </mxCell>
        <mxCell id="iBeRQEw0bHEhuUZA9688-485" value="&lt;div style=&quot;text-align: left;&quot;&gt;&lt;font style=&quot;font-size: 6px;&quot;&gt;-seat NOT_NULL&lt;/font&gt;&lt;br&gt;&lt;/div&gt;" style="text;html=1;align=center;verticalAlign=middle;whiteSpace=wrap;rounded=0;labelBackgroundColor=none;container=0;fontColor=#1A1A1A;" vertex="1" parent="iBeRQEw0bHEhuUZA9688-497">
          <mxGeometry x="-1" width="51.143795416433754" height="7.5" as="geometry" />
        </mxCell>
        <mxCell id="iBeRQEw0bHEhuUZA9688-521" value="Ticket" style="swimlane;fontStyle=0;childLayout=stackLayout;horizontal=1;startSize=30;horizontalStack=0;resizeParent=1;resizeParentMax=0;resizeLast=0;collapsible=1;marginBottom=0;whiteSpace=wrap;html=1;labelBackgroundColor=none;rounded=0;fillColor=#FAD9D5;strokeColor=#D0CEE2;fontColor=#1A1A1A;" vertex="1" parent="1">
          <mxGeometry x="620.2900000000002" y="600" width="140" height="90" as="geometry" />
        </mxCell>
        <mxCell id="iBeRQEw0bHEhuUZA9688-522" value="&lt;div&gt;IdShow (pk)(fk)&lt;/div&gt;&lt;div&gt;Name (pk)(fk)&lt;/div&gt;&lt;div&gt;&lt;span style=&quot;background-color: initial;&quot;&gt;Type&lt;/span&gt;&lt;/div&gt;&lt;div&gt;&lt;span style=&quot;background-color: initial;&quot;&gt;Status&amp;nbsp;&lt;/span&gt;&lt;br&gt;&lt;/div&gt;" style="text;strokeColor=none;fillColor=none;align=left;verticalAlign=middle;spacingLeft=4;spacingRight=4;overflow=hidden;points=[[0,0.5],[1,0.5]];portConstraint=eastwest;rotatable=0;whiteSpace=wrap;html=1;labelBackgroundColor=none;rounded=0;fontColor=#1A1A1A;" vertex="1" parent="iBeRQEw0bHEhuUZA9688-521">
          <mxGeometry y="30" width="140" height="60" as="geometry" />
        </mxCell>
        <mxCell id="iBeRQEw0bHEhuUZA9688-529" value="" style="endArrow=none;dashed=1;html=1;rounded=0;entryX=0.241;entryY=1.027;entryDx=0;entryDy=0;entryPerimeter=0;labelBackgroundColor=none;fontColor=default;exitX=0.487;exitY=-0.015;exitDx=0;exitDy=0;exitPerimeter=0;strokeColor=#09555B;" edge="1" parent="1" source="iBeRQEw0bHEhuUZA9688-527">
          <mxGeometry width="50" height="50" relative="1" as="geometry">
            <mxPoint x="602.2900000000002" y="705" as="sourcePoint" />
            <mxPoint x="675.2" y="690.0000000000001" as="targetPoint" />
          </mxGeometry>
        </mxCell>
        <mxCell id="iBeRQEw0bHEhuUZA9688-530" value="" style="endArrow=none;dashed=1;html=1;rounded=0;entryX=0.79;entryY=1.018;entryDx=0;entryDy=0;entryPerimeter=0;exitX=0.5;exitY=0;exitDx=0;exitDy=0;exitPerimeter=0;labelBackgroundColor=none;fontColor=default;strokeColor=#09555B;" edge="1" parent="1" source="iBeRQEw0bHEhuUZA9688-520">
          <mxGeometry width="50" height="50" relative="1" as="geometry">
            <mxPoint x="714.2900000000002" y="705" as="sourcePoint" />
            <mxPoint x="712.8900000000003" y="691.0799999999999" as="targetPoint" />
          </mxGeometry>
        </mxCell>
        <mxCell id="iBeRQEw0bHEhuUZA9688-531" value="" style="group;labelBackgroundColor=none;fontColor=#1A1A1A;rounded=0;" vertex="1" connectable="0" parent="1">
          <mxGeometry x="622.2" y="699" width="60.09999999999991" height="19.649999999999977" as="geometry" />
        </mxCell>
        <mxCell id="iBeRQEw0bHEhuUZA9688-527" value="" style="whiteSpace=wrap;html=1;shape=mxgraph.basic.document;labelBackgroundColor=none;rounded=0;fillColor=#FAD9D5;strokeColor=#D0CEE2;fontColor=#1A1A1A;" vertex="1" parent="iBeRQEw0bHEhuUZA9688-531">
          <mxGeometry x="2.8099999999999454" width="57.29" height="19.65" as="geometry" />
        </mxCell>
        <mxCell id="iBeRQEw0bHEhuUZA9688-528" value="&lt;div style=&quot;text-align: left;&quot;&gt;&lt;font style=&quot;font-size: 6px;&quot;&gt;-type NOT_NULL&lt;/font&gt;&lt;/div&gt;" style="text;html=1;align=center;verticalAlign=middle;whiteSpace=wrap;rounded=0;labelBackgroundColor=none;fontColor=#1A1A1A;" vertex="1" parent="iBeRQEw0bHEhuUZA9688-531">
          <mxGeometry y="2.6499999999999773" width="57.1" height="12.35" as="geometry" />
        </mxCell>
        <mxCell id="iBeRQEw0bHEhuUZA9688-532" value="" style="group;labelBackgroundColor=none;fontColor=#1A1A1A;rounded=0;" vertex="1" connectable="0" parent="1">
          <mxGeometry x="704.7" y="700" width="55" height="20" as="geometry" />
        </mxCell>
        <mxCell id="iBeRQEw0bHEhuUZA9688-520" value="" style="whiteSpace=wrap;html=1;shape=mxgraph.basic.document;labelBackgroundColor=none;rounded=0;fillColor=#FAD9D5;strokeColor=#D0CEE2;fontColor=#1A1A1A;" vertex="1" parent="iBeRQEw0bHEhuUZA9688-532">
          <mxGeometry width="55" height="20" as="geometry" />
        </mxCell>
        <mxCell id="iBeRQEw0bHEhuUZA9688-526" value="&lt;div&gt;&lt;font style=&quot;font-size: 6px;&quot;&gt;-status NOT_NULL&lt;/font&gt;&lt;/div&gt;" style="text;html=1;align=left;verticalAlign=middle;whiteSpace=wrap;rounded=0;labelBackgroundColor=none;fontColor=#1A1A1A;" vertex="1" parent="iBeRQEw0bHEhuUZA9688-532">
          <mxGeometry y="6" width="54" height="4" as="geometry" />
        </mxCell>
        <mxCell id="iBeRQEw0bHEhuUZA9688-534" value="" style="endArrow=none;dashed=1;html=1;rounded=0;fontColor=default;exitX=1.008;exitY=0.084;exitDx=0;exitDy=0;exitPerimeter=0;entryX=-0.021;entryY=0.54;entryDx=0;entryDy=0;entryPerimeter=0;labelBackgroundColor=none;strokeColor=#09555B;" edge="1" parent="1" source="iBeRQEw0bHEhuUZA9688-384" target="iBeRQEw0bHEhuUZA9688-406">
          <mxGeometry width="50" height="50" relative="1" as="geometry">
            <mxPoint x="1024" y="740" as="sourcePoint" />
            <mxPoint x="1074" y="690" as="targetPoint" />
          </mxGeometry>
        </mxCell>
        <mxCell id="iBeRQEw0bHEhuUZA9688-535" value="" style="endArrow=none;dashed=1;html=1;rounded=0;fontColor=default;exitX=1.004;exitY=0.207;exitDx=0;exitDy=0;exitPerimeter=0;entryX=0.014;entryY=0.629;entryDx=0;entryDy=0;entryPerimeter=0;labelBackgroundColor=none;strokeColor=#09555B;" edge="1" parent="1" source="iBeRQEw0bHEhuUZA9688-384" target="iBeRQEw0bHEhuUZA9688-404">
          <mxGeometry width="50" height="50" relative="1" as="geometry">
            <mxPoint x="1024" y="740" as="sourcePoint" />
            <mxPoint x="1074" y="690" as="targetPoint" />
          </mxGeometry>
        </mxCell>
        <mxCell id="iBeRQEw0bHEhuUZA9688-536" value="" style="endArrow=none;dashed=1;html=1;rounded=0;fontColor=default;exitX=1.002;exitY=0.355;exitDx=0;exitDy=0;exitPerimeter=0;entryX=-0.023;entryY=0.585;entryDx=0;entryDy=0;entryPerimeter=0;labelBackgroundColor=none;strokeColor=#09555B;" edge="1" parent="1" source="iBeRQEw0bHEhuUZA9688-384" target="iBeRQEw0bHEhuUZA9688-400">
          <mxGeometry width="50" height="50" relative="1" as="geometry">
            <mxPoint x="1024" y="740" as="sourcePoint" />
            <mxPoint x="1074" y="690" as="targetPoint" />
          </mxGeometry>
        </mxCell>
        <mxCell id="iBeRQEw0bHEhuUZA9688-538" value="" style="endArrow=none;html=1;rounded=0;fontColor=default;entryX=0.484;entryY=1.054;entryDx=0;entryDy=0;entryPerimeter=0;exitX=0.706;exitY=0.007;exitDx=0;exitDy=0;exitPerimeter=0;labelBackgroundColor=none;strokeColor=#09555B;" edge="1" parent="1">
          <mxGeometry width="50" height="50" relative="1" as="geometry">
            <mxPoint x="705.1300000000003" y="600.6300000000001" as="sourcePoint" />
            <mxPoint x="704.9470934701208" y="405.01" as="targetPoint" />
          </mxGeometry>
        </mxCell>
        <mxCell id="iBeRQEw0bHEhuUZA9688-542" value="Brand" style="swimlane;fontStyle=0;childLayout=stackLayout;horizontal=1;startSize=30;horizontalStack=0;resizeParent=1;resizeParentMax=0;resizeLast=0;collapsible=1;marginBottom=0;whiteSpace=wrap;html=1;labelBackgroundColor=none;rounded=0;fillColor=#FAD9D5;strokeColor=#D0CEE2;fontColor=#1A1A1A;" vertex="1" parent="1">
          <mxGeometry x="621" y="745.5" width="140" height="100" as="geometry" />
        </mxCell>
        <mxCell id="iBeRQEw0bHEhuUZA9688-543" value="BNome (pk)&lt;div&gt;Representative&amp;nbsp;&lt;/div&gt;&lt;div&gt;Country of origin&lt;/div&gt;&lt;div&gt;Logo&lt;/div&gt;&lt;div&gt;&lt;br&gt;&lt;/div&gt;" style="text;strokeColor=none;fillColor=none;align=left;verticalAlign=middle;spacingLeft=4;spacingRight=4;overflow=hidden;points=[[0,0.5],[1,0.5]];portConstraint=eastwest;rotatable=0;whiteSpace=wrap;html=1;labelBackgroundColor=none;rounded=0;fontColor=#1A1A1A;" vertex="1" parent="iBeRQEw0bHEhuUZA9688-542">
          <mxGeometry y="30" width="140" height="70" as="geometry" />
        </mxCell>
        <mxCell id="iBeRQEw0bHEhuUZA9688-544" value="Collection" style="swimlane;fontStyle=0;childLayout=stackLayout;horizontal=1;startSize=30;horizontalStack=0;resizeParent=1;resizeParentMax=0;resizeLast=0;collapsible=1;marginBottom=0;whiteSpace=wrap;html=1;labelBackgroundColor=none;rounded=0;fillColor=#FAD9D5;strokeColor=#D0CEE2;fontColor=#1A1A1A;" vertex="1" parent="1">
          <mxGeometry x="426" y="791" width="140" height="80" as="geometry" />
        </mxCell>
        <mxCell id="iBeRQEw0bHEhuUZA9688-545" value="CName (pk)&lt;div&gt;Brand (fk)&lt;br&gt;&lt;div&gt;Season&lt;/div&gt;&lt;/div&gt;" style="text;strokeColor=none;fillColor=none;align=left;verticalAlign=middle;spacingLeft=4;spacingRight=4;overflow=hidden;points=[[0,0.5],[1,0.5]];portConstraint=eastwest;rotatable=0;whiteSpace=wrap;html=1;labelBackgroundColor=none;rounded=0;fontColor=#1A1A1A;" vertex="1" parent="iBeRQEw0bHEhuUZA9688-544">
          <mxGeometry y="30" width="140" height="50" as="geometry" />
        </mxCell>
        <mxCell id="iBeRQEw0bHEhuUZA9688-546" value="Fashion Piece" style="swimlane;fontStyle=0;childLayout=stackLayout;horizontal=1;startSize=30;horizontalStack=0;resizeParent=1;resizeParentMax=0;resizeLast=0;collapsible=1;marginBottom=0;whiteSpace=wrap;html=1;labelBackgroundColor=none;rounded=0;fillColor=#FAD9D5;strokeColor=#D0CEE2;fontColor=#1A1A1A;" vertex="1" parent="1">
          <mxGeometry x="231" y="791" width="140" height="120" as="geometry" />
        </mxCell>
        <mxCell id="iBeRQEw0bHEhuUZA9688-547" value="IdPiece (pk)&lt;div&gt;Collection (fk)&lt;/div&gt;&lt;div&gt;Designer (fk)&lt;br&gt;&lt;div&gt;Material&amp;nbsp;&lt;/div&gt;&lt;div&gt;Color&lt;/div&gt;&lt;div&gt;Type&lt;/div&gt;&lt;/div&gt;" style="text;strokeColor=none;fillColor=none;align=left;verticalAlign=middle;spacingLeft=4;spacingRight=4;overflow=hidden;points=[[0,0.5],[1,0.5]];portConstraint=eastwest;rotatable=0;whiteSpace=wrap;html=1;labelBackgroundColor=none;rounded=0;fontColor=#1A1A1A;" vertex="1" parent="iBeRQEw0bHEhuUZA9688-546">
          <mxGeometry y="30" width="140" height="90" as="geometry" />
        </mxCell>
        <mxCell id="iBeRQEw0bHEhuUZA9688-579" value="" style="endArrow=none;dashed=1;html=1;rounded=0;exitX=0.568;exitY=1.015;exitDx=0;exitDy=0;exitPerimeter=0;labelBackgroundColor=none;fontColor=default;strokeColor=#09555B;" edge="1" parent="1">
          <mxGeometry width="50" height="50" relative="1" as="geometry">
            <mxPoint x="719.1200000000003" y="845.505" as="sourcePoint" />
            <mxPoint x="752" y="855" as="targetPoint" />
          </mxGeometry>
        </mxCell>
        <mxCell id="iBeRQEw0bHEhuUZA9688-586" value="" style="group;labelBackgroundColor=none;fontColor=#1A1A1A;rounded=0;" vertex="1" connectable="0" parent="1">
          <mxGeometry x="763" y="488" width="100" height="32" as="geometry" />
        </mxCell>
        <mxCell id="iBeRQEw0bHEhuUZA9688-372" value="" style="whiteSpace=wrap;html=1;shape=mxgraph.basic.document;labelBackgroundColor=none;rounded=0;fillColor=#FAD9D5;strokeColor=#D0CEE2;fontColor=#1A1A1A;" vertex="1" parent="iBeRQEw0bHEhuUZA9688-586">
          <mxGeometry y="2" width="100" height="30" as="geometry" />
        </mxCell>
        <mxCell id="iBeRQEw0bHEhuUZA9688-373" value="&lt;div&gt;&lt;div&gt;&lt;font style=&quot;font-size: 6px;&quot;&gt;&lt;span style=&quot;background-color: initial;&quot;&gt;-height NOT_NULL CHECK&amp;nbsp;&lt;/span&gt;&lt;/font&gt;&lt;/div&gt;&lt;div&gt;&lt;font style=&quot;font-size: 6px;&quot;&gt;&lt;span style=&quot;background-color: initial;&quot;&gt;(height&amp;gt;100 AND height&amp;lt;250)&lt;/span&gt;&lt;/font&gt;&lt;/div&gt;&lt;/div&gt;" style="text;html=1;align=left;verticalAlign=middle;whiteSpace=wrap;rounded=0;labelBackgroundColor=none;fontColor=#1A1A1A;" vertex="1" parent="iBeRQEw0bHEhuUZA9688-586">
          <mxGeometry x="1" width="90" height="30" as="geometry" />
        </mxCell>
        <mxCell id="iBeRQEw0bHEhuUZA9688-588" value="" style="endArrow=none;html=1;rounded=0;fontColor=default;exitX=1;exitY=0.5;exitDx=0;exitDy=0;entryX=-0.007;entryY=0.066;entryDx=0;entryDy=0;entryPerimeter=0;labelBackgroundColor=none;strokeColor=#09555B;" edge="1" parent="1" source="iBeRQEw0bHEhuUZA9688-522" target="iBeRQEw0bHEhuUZA9688-384">
          <mxGeometry width="50" height="50" relative="1" as="geometry">
            <mxPoint x="811.06" y="781.5" as="sourcePoint" />
            <mxPoint x="861.06" y="731.5" as="targetPoint" />
            <Array as="points">
              <mxPoint x="812" y="660" />
              <mxPoint x="812" y="725" />
            </Array>
          </mxGeometry>
        </mxCell>
        <mxCell id="iBeRQEw0bHEhuUZA9688-589" value="" style="endArrow=none;html=1;rounded=0;fontColor=default;entryX=0.002;entryY=0.805;entryDx=0;entryDy=0;entryPerimeter=0;labelBackgroundColor=none;strokeColor=#09555B;" edge="1" parent="1" target="iBeRQEw0bHEhuUZA9688-384">
          <mxGeometry width="50" height="50" relative="1" as="geometry">
            <mxPoint x="761.29" y="793" as="sourcePoint" />
            <mxPoint x="811.29" y="743" as="targetPoint" />
          </mxGeometry>
        </mxCell>
        <mxCell id="iBeRQEw0bHEhuUZA9688-590" value="" style="endArrow=none;html=1;rounded=0;fontColor=default;entryX=0;entryY=0.843;entryDx=0;entryDy=0;entryPerimeter=0;exitX=1.002;exitY=0.277;exitDx=0;exitDy=0;exitPerimeter=0;labelBackgroundColor=none;strokeColor=#09555B;" edge="1" parent="1" source="iBeRQEw0bHEhuUZA9688-545" target="iBeRQEw0bHEhuUZA9688-543">
          <mxGeometry width="50" height="50" relative="1" as="geometry">
            <mxPoint x="566.8599999999999" y="834.2" as="sourcePoint" />
            <mxPoint x="620.5999999999999" y="833.59" as="targetPoint" />
          </mxGeometry>
        </mxCell>
        <mxCell id="iBeRQEw0bHEhuUZA9688-591" value="" style="endArrow=none;html=1;rounded=0;fontColor=default;exitX=0.002;exitY=0.01;exitDx=0;exitDy=0;exitPerimeter=0;labelBackgroundColor=none;strokeColor=#09555B;" edge="1" parent="1" source="iBeRQEw0bHEhuUZA9688-543">
          <mxGeometry width="50" height="50" relative="1" as="geometry">
            <mxPoint x="679.46" y="750.52" as="sourcePoint" />
            <mxPoint x="412" y="529" as="targetPoint" />
            <Array as="points">
              <mxPoint x="412" y="775" />
            </Array>
          </mxGeometry>
        </mxCell>
        <mxCell id="iBeRQEw0bHEhuUZA9688-592" value="" style="group;labelBackgroundColor=none;fontColor=#1A1A1A;rounded=0;" vertex="1" connectable="0" parent="1">
          <mxGeometry x="709" y="855" width="90" height="25" as="geometry" />
        </mxCell>
        <mxCell id="iBeRQEw0bHEhuUZA9688-539" value="" style="whiteSpace=wrap;html=1;shape=mxgraph.basic.document;labelBackgroundColor=none;rounded=0;fillColor=#FAD9D5;strokeColor=#D0CEE2;fontColor=#1A1A1A;" vertex="1" parent="iBeRQEw0bHEhuUZA9688-592">
          <mxGeometry width="90" height="25" as="geometry" />
        </mxCell>
        <mxCell id="iBeRQEw0bHEhuUZA9688-569" value="&lt;font style=&quot;font-size: 6px;&quot;&gt;-representative NOT_NULL&lt;/font&gt;" style="text;html=1;align=left;verticalAlign=middle;whiteSpace=wrap;rounded=0;labelBackgroundColor=none;fontColor=#1A1A1A;" vertex="1" parent="iBeRQEw0bHEhuUZA9688-592">
          <mxGeometry y="1" width="80" height="23.5" as="geometry" />
        </mxCell>
        <mxCell id="iBeRQEw0bHEhuUZA9688-593" value="" style="group;labelBackgroundColor=none;fontColor=#1A1A1A;rounded=0;" vertex="1" connectable="0" parent="1">
          <mxGeometry x="428" y="879" width="65" height="20" as="geometry" />
        </mxCell>
        <mxCell id="iBeRQEw0bHEhuUZA9688-540" value="" style="whiteSpace=wrap;html=1;shape=mxgraph.basic.document;labelBackgroundColor=none;rounded=0;fillColor=#FAD9D5;strokeColor=#D0CEE2;fontColor=#1A1A1A;" vertex="1" parent="iBeRQEw0bHEhuUZA9688-593">
          <mxGeometry y="1" width="65" height="19" as="geometry" />
        </mxCell>
        <mxCell id="iBeRQEw0bHEhuUZA9688-568" value="&lt;font style=&quot;font-size: 6px;&quot;&gt;-brand NOT_NULL&lt;/font&gt;" style="text;html=1;align=left;verticalAlign=middle;whiteSpace=wrap;rounded=0;labelBackgroundColor=none;fontColor=#1A1A1A;" vertex="1" parent="iBeRQEw0bHEhuUZA9688-593">
          <mxGeometry x="2.5699999999999363" y="1" width="54.43" height="17" as="geometry" />
        </mxCell>
        <mxCell id="iBeRQEw0bHEhuUZA9688-594" value="" style="group;labelBackgroundColor=none;fontColor=#1A1A1A;rounded=0;" vertex="1" connectable="0" parent="1">
          <mxGeometry x="516.6400000000001" y="878" width="66" height="21" as="geometry" />
        </mxCell>
        <mxCell id="iBeRQEw0bHEhuUZA9688-576" value="" style="whiteSpace=wrap;html=1;shape=mxgraph.basic.document;labelBackgroundColor=none;rounded=0;fillColor=#FAD9D5;strokeColor=#D0CEE2;fontColor=#1A1A1A;" vertex="1" parent="iBeRQEw0bHEhuUZA9688-594">
          <mxGeometry y="1" width="66" height="20" as="geometry" />
        </mxCell>
        <mxCell id="iBeRQEw0bHEhuUZA9688-577" value="&lt;div&gt;&lt;font style=&quot;font-size: 6px;&quot;&gt;-season NOT_NULL&lt;/font&gt;&lt;/div&gt;" style="text;html=1;align=left;verticalAlign=middle;whiteSpace=wrap;rounded=0;labelBackgroundColor=none;fontColor=#1A1A1A;" vertex="1" parent="iBeRQEw0bHEhuUZA9688-594">
          <mxGeometry x="0.7899999999999636" width="63.21" height="17" as="geometry" />
        </mxCell>
        <mxCell id="iBeRQEw0bHEhuUZA9688-595" value="" style="endArrow=none;dashed=1;html=1;rounded=0;fontColor=default;entryX=0.384;entryY=1;entryDx=0;entryDy=0;entryPerimeter=0;exitX=0.5;exitY=0;exitDx=0;exitDy=0;labelBackgroundColor=none;strokeColor=#09555B;" edge="1" parent="1" source="iBeRQEw0bHEhuUZA9688-568" target="iBeRQEw0bHEhuUZA9688-545">
          <mxGeometry width="50" height="50" relative="1" as="geometry">
            <mxPoint x="462" y="905" as="sourcePoint" />
            <mxPoint x="562" y="905" as="targetPoint" />
          </mxGeometry>
        </mxCell>
        <mxCell id="iBeRQEw0bHEhuUZA9688-597" value="" style="endArrow=none;dashed=1;html=1;rounded=0;fontColor=default;entryX=0.704;entryY=0.998;entryDx=0;entryDy=0;entryPerimeter=0;exitX=0.5;exitY=0;exitDx=0;exitDy=0;labelBackgroundColor=none;strokeColor=#09555B;" edge="1" parent="1" source="iBeRQEw0bHEhuUZA9688-577" target="iBeRQEw0bHEhuUZA9688-545">
          <mxGeometry width="50" height="50" relative="1" as="geometry">
            <mxPoint x="462" y="905" as="sourcePoint" />
            <mxPoint x="512" y="855" as="targetPoint" />
          </mxGeometry>
        </mxCell>
        <mxCell id="iBeRQEw0bHEhuUZA9688-598" value="" style="endArrow=none;html=1;rounded=0;fontColor=default;entryX=0;entryY=0.843;entryDx=0;entryDy=0;entryPerimeter=0;exitX=1.002;exitY=0.277;exitDx=0;exitDy=0;exitPerimeter=0;labelBackgroundColor=none;strokeColor=#09555B;" edge="1" parent="1">
          <mxGeometry width="50" height="50" relative="1" as="geometry">
            <mxPoint x="371" y="834.5" as="sourcePoint" />
            <mxPoint x="426" y="834.5" as="targetPoint" />
          </mxGeometry>
        </mxCell>
        <mxCell id="iBeRQEw0bHEhuUZA9688-608" value="" style="group;labelBackgroundColor=none;fontColor=#1A1A1A;rounded=0;" vertex="1" connectable="0" parent="1">
          <mxGeometry x="222" y="919" width="70" height="20" as="geometry" />
        </mxCell>
        <mxCell id="iBeRQEw0bHEhuUZA9688-609" value="" style="whiteSpace=wrap;html=1;shape=mxgraph.basic.document;labelBackgroundColor=none;rounded=0;fillColor=#FAD9D5;strokeColor=#D0CEE2;fontColor=#1A1A1A;" vertex="1" parent="iBeRQEw0bHEhuUZA9688-608">
          <mxGeometry y="1" width="65" height="19" as="geometry" />
        </mxCell>
        <mxCell id="iBeRQEw0bHEhuUZA9688-610" value="&lt;font style=&quot;font-size: 6px;&quot;&gt;-collection NOT_NULL&lt;/font&gt;" style="text;html=1;align=left;verticalAlign=middle;whiteSpace=wrap;rounded=0;labelBackgroundColor=none;fontColor=#1A1A1A;" vertex="1" parent="iBeRQEw0bHEhuUZA9688-608">
          <mxGeometry x="-0.43000000000000016" width="67.43" height="17" as="geometry" />
        </mxCell>
        <mxCell id="iBeRQEw0bHEhuUZA9688-611" value="" style="group;labelBackgroundColor=none;fontColor=#1A1A1A;rounded=0;" vertex="1" connectable="0" parent="1">
          <mxGeometry x="310.6400000000001" y="918" width="66" height="21" as="geometry" />
        </mxCell>
        <mxCell id="iBeRQEw0bHEhuUZA9688-612" value="" style="whiteSpace=wrap;html=1;shape=mxgraph.basic.document;labelBackgroundColor=none;rounded=0;fillColor=#FAD9D5;strokeColor=#D0CEE2;fontColor=#1A1A1A;" vertex="1" parent="iBeRQEw0bHEhuUZA9688-611">
          <mxGeometry y="1" width="66" height="20" as="geometry" />
        </mxCell>
        <mxCell id="iBeRQEw0bHEhuUZA9688-613" value="&lt;div&gt;&lt;font style=&quot;font-size: 6px;&quot;&gt;-designer NOT_NULL&lt;/font&gt;&lt;/div&gt;" style="text;html=1;align=left;verticalAlign=middle;whiteSpace=wrap;rounded=0;labelBackgroundColor=none;fontColor=#1A1A1A;" vertex="1" parent="iBeRQEw0bHEhuUZA9688-611">
          <mxGeometry x="0.7899999999999636" width="63.21" height="17" as="geometry" />
        </mxCell>
        <mxCell id="iBeRQEw0bHEhuUZA9688-614" value="" style="endArrow=none;dashed=1;html=1;rounded=0;fontColor=default;entryX=0.384;entryY=1;entryDx=0;entryDy=0;entryPerimeter=0;exitX=0.5;exitY=0;exitDx=0;exitDy=0;labelBackgroundColor=none;strokeColor=#09555B;" edge="1" parent="1" source="iBeRQEw0bHEhuUZA9688-610">
          <mxGeometry width="50" height="50" relative="1" as="geometry">
            <mxPoint x="256" y="945" as="sourcePoint" />
            <mxPoint x="274" y="911" as="targetPoint" />
          </mxGeometry>
        </mxCell>
        <mxCell id="iBeRQEw0bHEhuUZA9688-615" value="" style="endArrow=none;dashed=1;html=1;rounded=0;fontColor=default;entryX=0.704;entryY=0.998;entryDx=0;entryDy=0;entryPerimeter=0;exitX=0.5;exitY=0;exitDx=0;exitDy=0;labelBackgroundColor=none;strokeColor=#09555B;" edge="1" parent="1" source="iBeRQEw0bHEhuUZA9688-613">
          <mxGeometry width="50" height="50" relative="1" as="geometry">
            <mxPoint x="256" y="945" as="sourcePoint" />
            <mxPoint x="319" y="911" as="targetPoint" />
          </mxGeometry>
        </mxCell>
        <mxCell id="iBeRQEw0bHEhuUZA9688-617" value="" style="endArrow=none;dashed=1;html=1;rounded=0;fontColor=default;exitX=1;exitY=0.5;exitDx=0;exitDy=0;exitPerimeter=0;entryX=-0.001;entryY=0.246;entryDx=0;entryDy=0;entryPerimeter=0;labelBackgroundColor=none;strokeColor=#09555B;" edge="1" parent="1" source="iBeRQEw0bHEhuUZA9688-209" target="iBeRQEw0bHEhuUZA9688-213">
          <mxGeometry width="50" height="50" relative="1" as="geometry">
            <mxPoint x="241" y="531" as="sourcePoint" />
            <mxPoint x="331" y="491" as="targetPoint" />
          </mxGeometry>
        </mxCell>
        <mxCell id="iBeRQEw0bHEhuUZA9688-618" value="" style="endArrow=none;dashed=1;html=1;rounded=0;fontColor=default;entryX=-0.006;entryY=0.454;entryDx=0;entryDy=0;entryPerimeter=0;exitX=0.989;exitY=0.621;exitDx=0;exitDy=0;exitPerimeter=0;labelBackgroundColor=none;strokeColor=#09555B;" edge="1" parent="1" source="iBeRQEw0bHEhuUZA9688-243" target="iBeRQEw0bHEhuUZA9688-213">
          <mxGeometry width="50" height="50" relative="1" as="geometry">
            <mxPoint x="241" y="531" as="sourcePoint" />
            <mxPoint x="291" y="481" as="targetPoint" />
          </mxGeometry>
        </mxCell>
        <mxCell id="iBeRQEw0bHEhuUZA9688-619" value="" style="endArrow=none;html=1;rounded=0;fontColor=default;entryX=0;entryY=0.5;entryDx=0;entryDy=0;labelBackgroundColor=none;strokeColor=#09555B;" edge="1" parent="1" target="iBeRQEw0bHEhuUZA9688-490">
          <mxGeometry width="50" height="50" relative="1" as="geometry">
            <mxPoint x="670" y="312" as="sourcePoint" />
            <mxPoint x="738.06" y="372" as="targetPoint" />
          </mxGeometry>
        </mxCell>
        <mxCell id="iBeRQEw0bHEhuUZA9688-621" value="" style="endArrow=none;html=1;rounded=0;fontColor=default;exitX=0.5;exitY=-0.004;exitDx=0;exitDy=0;exitPerimeter=0;labelBackgroundColor=none;strokeColor=#09555B;" edge="1" parent="1" source="iBeRQEw0bHEhuUZA9688-216">
          <mxGeometry width="50" height="50" relative="1" as="geometry">
            <mxPoint x="595.99" y="451" as="sourcePoint" />
            <mxPoint x="596" y="435" as="targetPoint" />
          </mxGeometry>
        </mxCell>
        <mxCell id="iBeRQEw0bHEhuUZA9688-625" value="" style="endArrow=none;html=1;rounded=0;fontColor=default;entryX=-0.064;entryY=0.489;entryDx=0;entryDy=0;entryPerimeter=0;exitX=0.5;exitY=0;exitDx=0;exitDy=0;labelBackgroundColor=none;strokeColor=#09555B;" edge="1" parent="1" source="iBeRQEw0bHEhuUZA9688-212">
          <mxGeometry width="50" height="50" relative="1" as="geometry">
            <mxPoint x="590.69" y="474.89" as="sourcePoint" />
            <mxPoint x="635.8800000000001" y="415.6916" as="targetPoint" />
            <Array as="points">
              <mxPoint x="402" y="435" />
              <mxPoint x="636" y="435" />
            </Array>
          </mxGeometry>
        </mxCell>
        <mxCell id="iBeRQEw0bHEhuUZA9688-626" value="" style="endArrow=none;html=1;rounded=0;fontColor=default;exitX=0.5;exitY=0;exitDx=0;exitDy=0;labelBackgroundColor=none;strokeColor=#09555B;" edge="1" parent="1" source="iBeRQEw0bHEhuUZA9688-348">
          <mxGeometry width="50" height="50" relative="1" as="geometry">
            <mxPoint x="166" y="492" as="sourcePoint" />
            <mxPoint x="166" y="312" as="targetPoint" />
          </mxGeometry>
        </mxCell>
        <mxCell id="iBeRQEw0bHEhuUZA9688-628" value="" style="endArrow=none;html=1;rounded=0;fontColor=default;exitX=0;exitY=0.5;exitDx=0;exitDy=0;entryX=0.518;entryY=1.006;entryDx=0;entryDy=0;entryPerimeter=0;labelBackgroundColor=none;strokeColor=#09555B;" edge="1" parent="1" source="iBeRQEw0bHEhuUZA9688-547" target="iBeRQEw0bHEhuUZA9688-349">
          <mxGeometry width="50" height="50" relative="1" as="geometry">
            <mxPoint x="166" y="825" as="sourcePoint" />
            <mxPoint x="165" y="605" as="targetPoint" />
            <Array as="points">
              <mxPoint x="166" y="865" />
            </Array>
          </mxGeometry>
        </mxCell>
        <mxCell id="iBeRQEw0bHEhuUZA9688-632" value="" style="endArrow=none;dashed=1;html=1;rounded=0;fontColor=default;exitX=1;exitY=0.5;exitDx=0;exitDy=0;exitPerimeter=0;entryX=-0.013;entryY=0.365;entryDx=0;entryDy=0;entryPerimeter=0;labelBackgroundColor=none;strokeColor=#09555B;" edge="1" parent="1" source="iBeRQEw0bHEhuUZA9688-338">
          <mxGeometry width="50" height="50" relative="1" as="geometry">
            <mxPoint x="550" y="216" as="sourcePoint" />
            <mxPoint x="597.2269999999996" y="210.94999999999993" as="targetPoint" />
          </mxGeometry>
        </mxCell>
      </root>
    </mxGraphModel>
  </diagram>
</mxfile>
